<?xml version="1.0" encoding="utf-8"?>
<!-- Generator: Adobe Illustrator 16.0.0, SVG Export Plug-In . SVG Version: 6.00 Build 0)  -->
<!DOCTYPE svg PUBLIC "-//W3C//DTD SVG 1.1//EN" "http://www.w3.org/Graphics/SVG/1.1/DTD/svg11.dtd">
<svg version="1.1" xmlns="http://www.w3.org/2000/svg" xmlns:xlink="http://www.w3.org/1999/xlink" x="0px" y="0px" width="500px"
	 height="500px" viewBox="0 0 500 500" enable-background="new 0 0 500 500" xml:space="preserve">
<g id="Layer_1" display="none">
	<g id="VZhoRB_1_" display="inline">
		<g>
			<path fill-rule="evenodd" clip-rule="evenodd" fill="#C19CA7" d="M99.891,287.546c18.321,0,36.657-0.46,54.959,0.125
				c19.319,0.617,38.628,1.738,57.943,2.588c6.577,0.288,13.126,1.597,19.797,1.562c3.461-0.02,6.504-2.02,10.001-1.495
				c9.793,1.471,13.704,6.459,14.065,17.487c0.496,15.234-0.877,30.426-0.726,45.649c0.262,26.598,0.521,53.198,0.758,79.797
				c0.032,3.688-0.166,7.358-0.451,11.047c-0.468,6.061-4.572,8.907-9.698,9.861c-10.583,1.974-21.102,2.956-32.027,2.289
				c-18.246-1.114-36.615-1.255-54.773,2.051c-1.296,0.235-2.654,0.153-3.984,0.182c-25.564,0.528-51.153,0.464-76.693,1.248
				c-19.379,0.596-38.87,0.417-58.177,3.063c-6.401,0.877-9.992-2.576-10.195-9.013c-0.16-5.051,0.485-10.021,1.099-14.99
				c1.424-11.517-0.762-23.005-0.099-34.51c0.789-13.689,3.225-27.251,2.835-41.043c-0.31-10.936-0.24-21.885-0.119-32.827
				c0.044-4.079-1.683-7.729-2.074-11.724c-0.71-7.275,1.484-13.954,3.206-20.756c0.487-1.93,2.534-2.264,4.184-2.911
				c8.484-3.326,17.534-3.756,26.396-4.986C63.944,287.766,81.798,285.312,99.891,287.546z M105.731,394.527
				c0,8.253,0.066,16.508-0.04,24.759c-0.034,2.591,1.037,3.554,3.444,3.118c1.583-0.284,3.288-0.487,4.666-1.23
				c16.154-8.734,31.189-19.236,46.31-29.59c7.497-5.132,14.711-10.684,22.268-15.721c4.545-3.031,5.011-8.642,0.487-11.646
				c-3.146-2.087-6.302-4.16-9.492-6.181c-19.919-12.609-40.994-23.18-61.471-34.804c-3.351-1.902-5.27-0.733-5.267,3.205
				c0.004,6.187-0.316,12.361-0.493,18.534C105.671,361.487,105.533,378.016,105.731,394.527z"/>
			<path fill-rule="evenodd" clip-rule="evenodd" fill="#C19CA7" d="M74.458,20.803c12.019-2.578,23.857-5.806,35.912-7.524
				c14.34-2.044,28.837-1.906,43.157,1.111c4.835,1.018,9.724,0.398,14.593,0.365c6.694-0.047,7.532,1.79,9.939,8.047
				c5.449,14.161,3.716,28.787,4.04,43.253c0.533,23.794,0.627,47.619-0.999,71.375c-1.756,25.664-2.698,51.336-2.301,77.048
				c0.133,8.547,0.961,17.084,1.379,25.63c0.173,3.535,0.607,7.107-0.184,10.611c-1.36,6.019-6.948,8.696-12.254,5.629
				c-8.38-4.845-17.426-4.379-26.29-2.993c-12.864,2.008-25.655,3.609-38.688,2.207c-3.667-0.396-7.383-0.41-11.048,0.333
				c-0.722,0.146-1.491,0.405-2.185,0.29c-13.597-2.257-27.025,1.696-40.567,1.067c-5.053-0.234-10.054,0.136-14.978,1.138
				c-6.157,1.253-12.058,0.116-17.856-1.662c-5.338-1.636-7.806-6.368-5.728-11.519c1.772-4.393,1.866-8.047,0.399-12.855
				c-1.884-6.177-1.583-13.125-1.612-19.743c-0.134-30.169-0.255-60.342,0.064-90.509c0.106-9.997,1.61-19.974,2.33-29.971
				c0.181-2.51,1.132-2.904,2.954-1.575c3.196,2.332,6.808,2.271,10.533,2.539c13.51,0.971,26.753-1.539,40.091-2.731
				c6.43-0.575,9.784-5.617,10.638-11.992c1.65-12.324-0.174-24.714,1.512-37.039C78.259,34.379,77.351,27.299,74.458,20.803z
				 M86.771,49.137c0.184-0.033,0.368-0.064,0.551-0.097c0.56-3.281,1.176-6.552,1.644-9.846c0.154-1.083,1.333-2.212,0.247-3.274
				c-0.731-0.715-1.661-0.107-2.444,0.227c-1.643,0.701-1.237,2.165-1.112,3.422C85.975,42.764,86.393,45.948,86.771,49.137z
				 M38.802,231.701c-0.49,1.721-0.959,2.824-1.086,3.965c-0.134,1.211-0.733,2.812,1.013,3.378
				c1.436,0.465,3.164,0.319,4.065-0.866c0.976-1.283-0.979-1.782-1.445-2.744C40.794,234.292,39.921,233.305,38.802,231.701z
				 M125.373,229.212c-1.049,3.14-3.829,4.616-2.534,7.189c0.44,0.875,3.377,0.883,4.001-0.023
				C128.343,234.195,126.238,232.314,125.373,229.212z M64.433,237.575c8.06-0.765,8.369-1.1,6.723-6.701
				C69.057,232.978,67.607,235.511,64.433,237.575z M142.064,30.186c-0.405-1.706-1.823-1.683-3.135-1.727
				c-0.944-0.031-1.986,0.283-1.62,1.459c0.435,1.394,1.328,2.972,2.835,3.01C141.237,32.957,141.804,31.43,142.064,30.186z
				 M61.106,238.396c-5.586-3.051-5.586-3.051-7.968,0.511C55.557,239.484,57.681,238.328,61.106,238.396z M145.233,228.353
				c-0.74,2.027-2.009,3.653-0.465,5.43c0.427,0.492,1.692,0.583,1.924-0.047C147.39,231.843,146.286,230.275,145.233,228.353z"/>
			<path fill-rule="evenodd" clip-rule="evenodd" fill="#C19FA9" d="M428.312,202.192c0.857-1.917,1.471-3.238,2.045-4.576
				c0.788-1.84,0.237-3.5-0.876-4.978c-0.557-0.738-1.379-0.972-2.369-0.588c-2.028,0.786-2.111,2.663-2.549,4.337
				c-0.107,0.413-0.138,0.942,0.024,1.315c2.549,5.775-0.94,4.865-4.808,4.93c-12.677,0.209-25.303,1.184-37.804,3.606
				c-3.405,0.659-7.046,0.099-11.007,0.099c1.413-1.88,1.533-3.995,1.381-6.125c-0.119-1.672-0.38-3.508-2.662-3.247
				c-1.811,0.208-2.942,1.525-2.798,3.391c0.155,2,0.644,3.974,1.042,6.266c-17.896,1.5-35.765,0.417-54.285,2.201
				c1.59-2.722,1.93-4.833,1.784-7.053c-0.124-1.876-0.837-3.052-2.876-3.227c-2.317-0.2-2.411,1.433-2.926,3.031
				c-0.745,2.319,0.859,4.288,0.533,6.526c-19.235,3.694-38.78,1.296-58.212,2.021c-1.536,0.058-3.312-0.404-3.975-1.614
				c-2.803-5.115-5.618-10.806-4.886-16.414c0.727-5.569,1.36-11.111,1.384-16.685c0.075-18.19-0.053-36.382-0.139-54.573
				c-0.031-6.789-0.264-13.557-0.719-20.348c-0.789-11.806,1.63-23.523,2.055-35.33c0.226-6.286,1.112-12.587,1.949-18.87
				c1.392-10.466,3.596-11.195,13.8-14.394c7.387-2.315,15.153-2.377,22.782-0.892c5.204,1.013,10.148,0.715,15.275-0.7
				c6.465-1.784,13.078-1.25,19.762-0.524c10.604,1.152,21.253,0.043,31.857-0.791c10.438-0.821,20.871-1.688,31.302-2.585
				c12.483-1.075,24.96-2.205,37.442-3.309c0.147-0.013,0.304-0.06,0.441-0.024c10.35,2.711,19.647-2.365,29.405-3.999
				c5.744-0.961,11.424-1.086,17.142,0.207c3.445,0.779,6.946,1.311,10.427,1.936c8.196,1.472,11.997,5.512,12.018,13.842
				c0.046,19.199,0.785,38.424-1.533,57.567c-0.283,2.335-0.155,4.729-0.121,7.094c0.298,20.838-1.669,41.63-1.513,62.435
				c0.057,7.478-1.055,14.585-2.405,21.712c-0.628,3.318-2.005,5.849,0.019,9.48c1.757,3.151-2.616,7.256-7.423,7.976
				c-8.083,1.209-16.217,0.783-24.336,0.857C444.282,202.247,436.601,202.192,428.312,202.192z M476.86,173.77
				c0.524,0.2,1.302,0.247,1.532,0.626c1.088,1.798,2.352,2.81,4.11,0.949c2.145-2.27,2.471-5.019,0.826-7.617
				c-1.232-1.949-2.998-1.021-4.635-0.143c-2.798,1.5-1.605,4.045-1.777,6.24c-4.205,0.359-3.486,3.535-3.556,6.242
				c-0.03,1.229,0.111,2.423,1.688,2.604c1.513,0.174,1.98-1.011,2.482-2.062C478.685,178.206,476.822,176.077,476.86,173.77z
				 M366.838,172.887c-0.522,3.789,1.079,7.625-0.841,11.503c-0.732,1.475-1.287,5.343,1.496,5.564
				c2.989,0.238,3.027-3.316,3.495-5.69c0.105-0.533-0.147-1.16-0.317-1.719c-0.324-1.062-0.065-1.926,0.451-2.92
				c3.305-6.365,2.885-6.983-4.323-6.702c0.298-2.479,0.879-4.964,0.822-7.435c-0.07-3.185,1.928-3.918,4.224-3.722
				c2.816,0.242,2.219,2.743,2.033,4.542c-0.641,6.18-0.747,5.918,4.877,4.927c2.852-0.502,2.076-2.235,2.301-3.843
				c0.291-2.092-0.737-4.511,1.557-6.123c1.364-0.957,2.827-0.989,4.189-0.319c2.115,1.041,1.071,3.116,1.29,4.773
				c0.192,1.465-0.654,3.7,1.957,3.578c1.867-0.086,4.611,1.598,5.246-2.101c0.522-3.051,3.325-2.816,4.9-1.963
				c5.471,2.962,11.098,2.455,16.777,1.49c3.565-0.604,7.514-0.177,10.432-2.911c1.219-1.143,2.843-3.792,0.166-3.918
				c-4.25-0.202-3.453-2.464-3.542-4.963c-0.046-1.31,0.013-2.501,1.318-2.874c1.286-0.367,1.474,1.118,2.171,1.787
				c1.896,1.819,2.383,5.483,6.103,4.974c2.648-0.362,3.845,0.874,4.139,3.332c0.186,1.565,0.433,3.005,2.638,2.461
				c6.002-1.478,12.106-2.632,17.958-4.558c1.575-0.518,4.003-1.132,4.867-3.377c0.332-0.862,0.202-2.345,1.69-2.208
				c1.811,0.167,1.235,1.759,1.282,2.796c0.074,1.596,0.568,2.502,2.33,2.454c2.094-0.058,2.231-1.366,2.229-3.011
				c-0.006-3.236-0.421-6.506,0.676-9.682c0.296-0.853,0.27-1.944-0.613-2.392c-2.462-1.247-1.62-3.485-1.907-5.443
				c-0.679-4.604,1.729-9.102,0.628-13.622c-1.383-5.669,0.134-11.515-1.446-17.155c-0.568-2.026,1.019-3.604,2.031-5.218
				c1.909-3.042,3.026-6.368,3.183-9.933c0.275-6.357-1.683-11.826-6.503-16.235c-3.78-3.457-4.242-7.906-1.286-9.688
				c6.712-4.046,11.607-14.332,10.504-22.074c-0.719-5.054-2.317-6.445-7.495-6.447c-11.241-0.003-22.482,0.005-33.724,0.021
				c-1.918,0.002-3.765,0.023-5.362,1.52c-5.473,5.126-8.898,15.155-2.478,21.641c1.927,1.944,1.99,2.775-0.604,4.453
				c-6.127,3.96-9.415,9.501-6,16.848c0.411,0.887,0.82,2.229,0.445,2.955c-2.569,4.976-2.502,10.286-3.188,15.659
				c-0.698,5.465-1.379,10.374,1.113,15.383c0.409,0.821,0.598,1.785,0.045,2.534c-0.854,1.157-1.811,0.256-2.754-0.065
				c-3.78-1.293-7.581-2.441-11.677-1.99c-7.34,0.808-11.677,2.077-13.892,10.735c-1.804,7.049-4.043,13.986-6.061,20.981
				c-0.313,1.084-0.81,2.002-1.998,2.056c-1.511,0.069-1.283-1.336-1.598-2.229c-0.245-0.692-0.49-1.411-0.559-2.135
				c-0.156-1.649-0.596-2.813-2.636-2.755c-1.89,0.054-2.599,0.991-2.78,2.718c-0.105,1.014-0.413,2.009-0.648,3.007
				c-0.353,1.492-0.202,3.75-2.683,2.934c-1.869-0.617-5.056,0.287-4.76-3.655c0.166-2.215,0.273-4.94-3.355-5.024
				c-3.75-0.087-3.217,3.008-3.496,4.995c-0.294,2.081-0.879,3.038-2.963,3.559c-2.975,0.743-5.276,0.808-6.068-2.863
				c-0.4-1.85-1.903-2.556-3.571-2.851c-1.071-0.189-1.717,0.481-1.694,1.523c0.099,4.714-2.684,5.626-6.738,5.821
				c-2.065,0.099-2.878,0.199-3.121-2.114c-0.476-4.558-0.727-9.11-0.896-13.687c-0.134-3.657,1.062-5.085,4.817-4.902
				c3.611,0.177,6.995-1.868,6.92-5.342c-0.14-6.393-1.43-12.861-5.412-18.19c-3.886-5.2-6.68-11.003-10-16.513
				c-3.082-5.113-6.336-10.166-11.27-13.902c-1.884-1.427-4.767-0.575-6.244-3.157c0.708-0.433,1.281-0.844,1.903-1.158
				c4.124-2.074,5.011-5.687,4.126-9.71c-0.901-4.104-4.333-4.24-7.734-4.066c-1.031,0.053-2.075-0.056-3.104,0.024
				c-2.924,0.226-5.325,2.333-5.604,4.558c-0.342,2.718-2.204,6.49,2.045,8.569c1.011,0.495,3.554,0.869,2.544,2.821
				c-0.784,1.517-3.037,2.161-4.684,1.591c-2.637-0.915-5.147-0.446-8.711,0.198c6.5-7.208,5.028-15.267,4.891-23.016
				c-0.112-6.253-2.402-10.079-5.8-9.757c-8.099,0.767-16.226,0.475-24.301,1.03c-2.688,0.185-4.886,1.121-7.301-0.925
				c-0.713-0.605-2.371-2.429-3.794-0.657c-1.094,1.358-0.643,3.142-0.434,4.706c0.21,1.557,1.225,1.963,2.909,1.767
				c2.524-0.294,2.96,1.515,1.522,2.958c-2.685,2.691-2.735,6.099-3.291,9.377c-1.319,7.769,0.6,14.366,7.383,19.006
				c0.713,0.486,1.904,0.675,1.68,1.721c-0.305,1.421-1.68,0.819-2.612,0.887c-4.387,0.319-6.173,2.727-5.926,6.999
				c0.211,3.663-0.112,7.316,0.779,10.983c0.921,3.785,1.702,4.4,5.055,2.427c0.992-0.584,1.841-1.446,2.663-2.271
				c4.309-4.327,4.107-9.85,4.098-15.353c-0.002-1.108-0.834-3.418,1.177-3.072c7.023,1.208,13.567,0.567,19.646-4.203
				c0.422,2.644,0.432,4.618,0.914,6.589c1.062,4.335-3.693,5.894-5.595,8.863c-1.211,1.893-3.314-0.299-4.914-1.289
				c-2.444-1.514-5.418-1.271-7.685-0.34c-2.081,0.855-1.575,4.718-0.779,5.526c4.665,4.746,1.645,8.703,0.126,13.491
				c-1.033,3.258-0.713,6.563-4.099,8.875c-1.846,1.26-2.237,3.967-1.354,6.123c0.87,2.124,3.113,1.023,4.762,1.17
				c1.464,0.131,2.966,0.075,4.43-0.087c3.025-0.334,4.339,1.321,3.801,3.917c-1.36,6.554-0.013,13.294-1.656,19.822
				c-0.476,1.891-0.356,4.235-2.758,4.397c-2.475,0.168-3.573-1.638-3.495-4.097c0.067-2.186-1.346-2.713-3.179-2.775
				c-2.223-0.075-2.303,1.444-2.177,2.992c0.318,3.958-1.646,5.333-5.354,5.036c-1.104-0.087-2.854-0.487-3.136,0.86
				c-0.538,2.577-0.933,5.446,0.186,7.843c0.821,1.756,3.229,1.292,4.905,1.016c3.003-0.492,5.277-0.175,6.119,3.259
				c0.283,1.16,0.917,2.509,2.226,2.433c1.279-0.075,1.623-1.576,2.095-2.637c0.452-1.02,0.416-2.876,1.865-2.51
				c1.786,0.45,0.715,2.206,0.585,3.382c-0.506,4.555,0.78,6.593,4.641,6.823c6.172,0.37,12.397,0.551,18.531,0.613
				c8.437,0.085,16.927-1.568,25.319-2.932c3.094-0.502,6.914,0.978,9.281-2.643c0.431-0.659,1.658-0.232,2.007,0.867
				c0.749,2.361,2.547,1.63,4.005,1.155c1.328-0.432,1.502-1.703,1.109-2.962c-0.592-1.909-1.973-2.652-3.769-1.926
				c-2.504,1.014-2.841-0.556-2.988-2.296c-0.138-1.616-0.004-3.253-0.079-4.877c-0.111-2.359,0.782-3.521,3.316-3.582
				c2.567-0.062,3.946,0.746,3.896,3.483c-0.022,1.168,0.082,2.367,0.34,3.504c0.517,2.282,2.16,2.894,4.341,2.849
				c2.341-0.049,2.471-1.547,2.573-3.286c0.069-1.173,0.401-2.327,0.563-3.497c0.419-3.03,2.561-2.936,4.92-3.06
				c2.741-0.144,2.96,1.195,3.224,3.426C360.681,172.986,360.8,172.973,366.838,172.887z M345.55,71.08
				c-0.009,5.909,0.02,5.891,3.43,11.216c0.708,1.103,1.233,2.359,1.64,3.611c2.082,6.431,7.277,9.654,13.785,8.32
				c2.181-0.446,4.183-0.301,5.837,1.154c3.6,3.165,7.67,2.224,11.728,1.566c1.154-0.187,2.401-0.929,3.415-0.669
				c5.743,1.474,9.173-2.022,12.378-5.707c1.464-1.684,2.867-2.699,5.152-2.849c4.021-0.264,8.092-4.973,8.158-8.996
				c0.119-7.312-3.995-13.165-6.538-19.586c-3.353-8.464-12.316-8.376-18.621-11.81c-6.115-3.332-13.704-1.479-19.403,4.128
				c-1.551,1.525-3.069,3.45-5.876,3.481C351.151,55.047,343.851,61.174,345.55,71.08z M309.521,57.501
				c5.33-0.032,7.583-2.353,7.63-7.336c0.024-2.608-1.464-4.755-3.369-3.9c-3.533,1.584-8.953-2.717-10.745,3.11
				C301.507,54.346,304.327,57.532,309.521,57.501z M312.689,188.991c1.416,3.777,1.994,4.529,3.355,4.289
				c1.749-0.307,2.209-1.834,2.648-3.206c0.579-1.801,0.253-3.479-1.205-4.839c-1.381-1.288-2.729-0.754-3.997,0.114
				c-0.996,0.683-1.434,1.817-3.253,1.414c-4.032-0.896-6.121,1.46-5.562,5.652c0.223,1.669,0.928,2.727,2.768,2.778
				c1.594,0.045,3.02-0.21,3.431-2.009C311.193,191.792,311.052,190.256,312.689,188.991z M343.021,184.273
				c0.958-0.325,1.257,0.29,1.666,0.657c0.881,0.792,1.907,1.933,2.875,0.415c1.201-1.884,1.722-4.086,1.137-6.33
				c-0.343-1.32-2.226-2.243-2.65-1.606c-2.031,3.031-5.006,4.467-7.966,6.263c-1.549,0.939-0.605,3.795,0.093,5.812
				c0.444,1.287,0.979,2.165,2.45,1.896c1.312-0.241,2.067-1.104,2.163-2.439C342.903,187.364,342.949,185.784,343.021,184.273z
				 M454.57,175.333c-0.199-1.237,0.38-4.044-1.552-3.661c-3.964,0.786-3.419-1.692-3.907-3.869
				c-0.362-1.606-1.728-2.549-3.288-2.38c-1.335,0.146-1.492,1.69-1.737,2.783c-0.294,1.314-0.211,3.453,1.232,3.24
				c4.301-0.632,3.031,2.255,3.08,4.266c0.057,2.388,0.462,4.919,3.226,4.878C454.446,180.548,454.746,177.965,454.57,175.333z
				 M351.63,183.007c-0.142,2.693,0.688,4.771,3.731,4.807c2.971,0.036,5.523-1.428,4.873-4.586
				c-0.451-2.187,1.047-6.279-4.092-6.085C351.715,177.31,351.762,180.02,351.63,183.007z M401.722,170.188
				c-1.294,0.304-3.164,0.223-2.681,2.453c0.292,1.353-0.492,1.868-1.257,2.539c-2.242,1.971-1.656,4.574-1.515,7.045
				c0.093,1.652,1.188,2.212,2.743,2.182c1.47-0.028,2.341-0.816,2.201-2.171c-0.283-2.762,0.755-4.667,2.918-6.349
				c1.23-0.955,1.172-2.713,0.644-4.145C404.313,170.484,403.05,170.27,401.722,170.188z M373.769,182.552
				c0.149,1.009,0.202,2.868,0.464,2.899c2.97,0.342,6.046,0.792,8.914,0.253c0.669-0.126,1.707-3.762,0.756-5.947
				c-1.028-2.364-2.811-0.427-4.222-0.641c-0.715-0.108-1.484,0.137-2.195,0.019C374.744,178.681,373.594,179.816,373.769,182.552z
				 M430.821,182.777c0.171,2.541,0.288,4.776,2.535,4.729c2.175-0.046,1.89-2.302,1.792-3.859
				c-0.215-3.444-1.521-6.82,0.019-10.344c0.575-1.316-0.415-2.721-1.975-2.859c-1.519-0.134-2.86,0.94-2.345,2.416
				C432.105,176.472,433.32,179.945,430.821,182.777z M348.637,189.923c-2.664-0.352-3.028,0.594-3.477,1.578
				c-0.649,1.438-1.125,2.951,0.377,3.975c1.511,1.029,3.027,1.638,2.045,4.027c-0.607,1.479,0.907,2.091,2.049,2.236
				c1.341,0.17,2.499-0.3,3.244-1.718c0.696-1.329,0.604-2.538-0.717-2.875c-2.373-0.607-2.394-2.081-2.222-3.992
				C350.103,191.325,349.295,190.025,348.637,189.923z M394.312,195.193c0.107-2.743-0.237-5.188-3.052-5.266
				c-2.059-0.057-3.426,1.721-3.1,3.965c0.379,2.615-0.113,6.551,3.266,6.765C394.708,200.864,393.574,196.936,394.312,195.193z
				 M286.989,192.326c0.156-2.517-0.413-4.514-3.454-4.4c-2.766,0.103-3.77,1.918-3.737,4.415c0.034,2.619,0.893,4.574,4.023,4.58
				C287.202,196.925,286.817,194.444,286.989,192.326z M328.62,199.07c-0.229-1.438,0.82-4.418-2.528-4.513
				c-3.167-0.09-3.471,2.661-3.563,5.046c-0.09,2.343,0.694,4.746,3.29,4.854C328.956,204.586,328.799,201.913,328.62,199.07z
				 M442.992,193.541c0.144-2.8-0.958-3.864-3.418-3.883c-2.285-0.019-3.804,0.483-3.547,3.174c0.241,2.533,0.261,5.178,3.903,5.179
				C443.565,198.011,441.988,194.771,442.992,193.541z M444.991,190.228c-0.221,2.484,0.257,4.821,3.122,4.814
				c3.055-0.007,2.897-2.708,2.977-4.886c0.072-2.012-0.026-3.798-2.902-3.79C445.297,186.375,444.673,187.864,444.991,190.228z
				 M271.832,183.859c0.296-2.905-0.372-4.753-2.839-4.622c-2.587,0.137-3.083,2.411-3.205,4.516
				c-0.119,2.057,0.5,4.052,2.916,4.138C271.948,188.007,271.547,185.228,271.832,183.859z M474.312,189.698
				c-1.881-0.043-3.457,0.646-2.903,2.733c0.455,1.713-1.25,4.72,1.909,4.985c2.768,0.232,4.165-1.891,4.302-4.542
				C477.729,190.714,476.461,189.677,474.312,189.698z M388.107,179.951c0.294,1.77-0.862,4.292,2.262,4.425
				c2.703,0.115,2.958-1.844,2.99-3.93c0.031-2.241-0.308-4.424-2.988-4.606C387.04,175.612,388.504,178.397,388.107,179.951z
				 M412.07,193.652c-0.393,1.814,0.292,3.748,2.711,3.714c2.643-0.036,2.78-2.673,3.222-4.578c0.538-2.312-1.136-3.357-3.011-3.478
				C412.366,189.142,411.963,191.112,412.07,193.652z M297.662,187.702c0.27-2.077-0.976-3.693-3.021-3.899
				c-2.231-0.225-3.258,1.469-3.342,3.706c-0.082,2.194,0.529,3.887,2.969,4.055C296.717,191.731,297.638,190.198,297.662,187.702z
				 M405.073,184.714c-0.102,1.718-0.085,3.483,2.235,3.514c1.958,0.026,3.824-0.832,3.347-3.08
				c-0.375-1.773-0.01-4.758-2.875-4.746C405.347,180.413,405.026,182.663,405.073,184.714z M420.927,182.989
				c-0.158,2.005,0.347,3.81,2.648,3.676c2.415-0.142,2.851-2.121,2.764-4.22c-0.075-1.846-0.296-3.866-2.558-3.914
				C420.815,178.47,421.07,180.979,420.927,182.989z M416.656,178.53c-0.353-1.736,0.666-4.447-2.477-4.627
				c-1.889-0.108-3.128,1.643-2.662,3.3c0.557,1.977-0.54,5.356,3.056,5.468C417.562,182.764,416.077,180.121,416.656,178.53z
				 M381.06,193.768c-0.341-1.477-0.087-3.847-2.771-3.894c-2.486-0.044-2.396,2.171-2.51,3.861
				c-0.134,1.955,0.018,4.342,2.396,4.518C380.648,198.437,380.871,196.08,381.06,193.768z M457.747,167.647
				c0.734,1.595,0.131,4.305,2.972,4.107c2.167-0.151,2.686-2.021,2.681-3.928c-0.004-2.048-0.953-3.391-3.098-3.547
				C457.791,164.098,458.279,166.246,457.747,167.647z M462.523,181.028c0.014-1.941-0.464-4.043-2.211-3.969
				c-2.539,0.106-3.203,2.69-3.576,4.81c-0.285,1.622,0.725,2.894,2.486,2.831C461.584,184.615,462.39,182.935,462.523,181.028z
				 M470.728,181.331c-0.057-1.909,0.4-3.95-2.292-4.077c-2.62-0.124-3.045,1.565-3.156,3.722c-0.12,2.29,0.481,3.536,3.047,3.699
				C471.437,184.871,470.405,182.63,470.728,181.331z M275.418,194.293c-0.03-1.974,0.203-4.098-2.235-4.232
				c-2.148-0.12-2.966,1.594-3.062,3.527c-0.105,2.116,0.805,4.094,2.875,4.29C275.392,198.104,275.316,195.823,275.418,194.293z
				 M333.047,198.399c0.21,1.301-0.853,3.603,1.974,3.718c2.493,0.103,2.688-1.727,2.521-3.609c-0.164-1.874,0.725-4.683-2.25-4.729
				C332.684,193.74,333.077,196.293,333.047,198.399z M331.295,187.991c-0.147-1.603,0.634-3.771-2.343-3.575
				c-2.526,0.167-3.069,1.739-3.053,3.896c0.02,2.079,0.737,3.293,3.043,3.338C331.854,191.708,331.161,189.63,331.295,187.991z
				 M361.387,193.541c-3.164,0.563-0.962,3.653-2.134,5.287c-0.869,1.214,0.174,2.98,1.462,2.834
				c2.377-0.268,2.837-2.648,3.328-4.595C364.529,195.125,363.396,194.082,361.387,193.541z M424.004,176.541
				c2.361-0.378,2.572-2.567,2.756-4.282c0.187-1.744-1.577-2.397-3.015-2.429c-1.786-0.04-3.165,0.844-2.758,2.976
				C421.304,174.475,421.461,176.388,424.004,176.541z M459.095,193.844c0.434,1.3-0.919,3.661,1.93,3.513
				c1.995-0.104,2.665-1.507,2.533-3.417c-0.127-1.79-0.024-3.942-2.389-4.05C458.227,189.756,459.476,192.314,459.095,193.844z
				 M397.964,197.118c-0.261,1.748,0.926,3.029,2.677,3.059c2.558,0.044,2.09-2.537,2.373-4.002c0.347-1.785-0.901-3.305-2.839-3.11
				C398.132,193.271,397.962,195.118,397.964,197.118z M289.687,201.3c0.069-1.019-0.23-2.71-2.692-2.65
				c-2.556,0.062-2.386,2.396-2.558,3.866c-0.19,1.654,0.996,3.139,2.887,3.145C289.562,205.668,289.598,203.859,289.687,201.3z
				 M471.673,169.995c-0.03-1.913,0.093-3.783-2.197-3.851c-2.255-0.067-2.389,1.689-2.383,3.393
				c0.006,1.734,0.409,3.516,2.357,3.629C471.679,173.295,471.764,171.417,471.673,169.995z M440.406,177.643
				c0.06,1.581,0.339,3.333,2.525,3.135c2.192-0.199,2.067-2.104,1.992-3.717c-0.066-1.363,0.401-3.182-1.875-3.208
				C440.524,173.822,440.5,175.722,440.406,177.643z M296.393,201.378c1.288-0.152,3.187,0.431,3.16-1.787
				c-0.021-1.529-0.911-2.705-2.725-2.773c-2.179-0.082-2.716,1.771-2.967,3.119C293.56,201.551,295.227,201.334,296.393,201.378z
				 M265.486,191.313c-1.405,0.241-2.2,1.21-2.296,2.654c-0.101,1.513,0.583,2.587,2.229,2.696c1.573,0.105,1.975-0.906,2.015-2.252
				C267.479,192.981,267.257,191.751,265.486,191.313z M454.855,187.209c-1.251,0.174-1.13,1.428-1.09,2.612
				c0.043,1.266,0.687,1.881,1.984,1.739c1.703-0.187,1.578-1.457,1.552-2.644C457.272,187.614,456.523,187.101,454.855,187.209z"/>
			<path fill-rule="evenodd" clip-rule="evenodd" fill="#C19FA9" d="M401.971,469.981c-4.837,3.043-9.47,2.812-13.535-0.781
				c-4.361-3.854-6.938-9.181-10.788-13.472c-0.271-0.305-0.577-0.876-0.47-1.184c3.677-10.486-3.114-19.706-3.665-29.737
				c-0.421-7.682-0.285-15.341-0.476-23.003c-0.206-8.276-0.178-16.57,0.035-24.847c0.354-13.696,2.012-27.175,6.446-40.278
				c1.729-5.112,2.861-10.357,6.044-14.892c1.553-2.217,0.955-5.051-0.952-6.382c-1.81-1.264-4.306-0.976-6.469,0.871
				c-4.501,3.843-5.269,9.38-6.854,14.437c-5.821,18.59-6.283,37.862-7.479,57.131c-0.864,13.956,0.032,27.693,1.32,41.472
				c0.459,4.91,2.128,9.708,2.553,15.034c-4.134-4.991-8.082-10.153-12.456-14.923c-3.683-4.012-4.626-8.511-4.562-13.757
				c0.166-13.419,2.956-26.577,3.648-39.931c0.183-3.542,0.192-7.099,0.091-10.643c-0.279-9.687,1.731-18.996,4.125-28.305
				c1.073-4.181,4.003-8.154,1.899-12.929c-0.648-1.48,1.14-2.257,2.107-3.022c13.442-10.613,26.564-21.607,39.596-32.719
				c2.901-2.475,5.927-4.973,10.057-5.141c0.851-0.035,1.849-0.176,2.262,0.892c0.302,0.777-0.168,1.218-0.698,1.833
				c-4.62,5.384-7.895,11.604-9.579,18.42c-3.349,13.549-6.58,27.146-9.229,40.846c-2.062,10.669-3.29,21.502-4.226,32.358
				c-0.968,11.196-1.108,22.408-0.786,33.604c0.421,14.561,1.316,29.13,3.643,43.521
				C394.528,460.349,397.318,465.792,401.971,469.981z"/>
			<path fill-rule="evenodd" clip-rule="evenodd" fill="#C19FA9" d="M29.791,56.245c-1.331,4.591-4.587,6.259-6.521,8.926
				c-2.614,3.608-5.408,7.128-8.984,9.92c-0.61,0.476-1.125,1.136-1.843,0.724c-0.936-0.537-0.767-1.583-0.396-2.373
				c0.365-0.779,0.962-1.483,1.569-2.111c4.312-4.46,8.632-8.912,13.006-13.311C27.198,57.44,28.091,57.178,29.791,56.245z"/>
			<path fill-rule="evenodd" clip-rule="evenodd" fill="#C19FA9" d="M445.814,43.882c1.065,0.553,1.958-0.212,2.908-0.487
				c7.151-2.064,11.917,2.344,16.884,6.197c0.213,0.165,0.367,0.47,0.445,0.74c0.543,1.914-1.057,2.839-2.166,3.425
				c-2.507,1.324-3.386,5.869-6.989,4.46c-3.286-1.284-6.129-2.095-9.673-0.919c-3.389,1.124-10.27-4.927-10.085-8.393
				C437.301,45.91,441.273,43.6,445.814,43.882z"/>
			<path fill-rule="evenodd" clip-rule="evenodd" fill="#C19FA9" d="M448.161,158.42c0.169,2.219-1.453,1.943-2.662,1.908
				c-1.721-0.05-3.681-0.656-2.707-2.773c0.856-1.866-1.041-5.392,1.867-5.488C448.815,151.93,446.925,156.32,448.161,158.42z"/>
			<path fill-rule="evenodd" clip-rule="evenodd" fill="#C19FA9" d="M378.251,84.06c-0.802-0.309-1.913-0.384-2.358-0.966
				c-2.888-3.775-5.933-2.427-9.213-0.646c-3.48,1.89-5.39,0.848-6.097-3.033c-0.441-2.421-1.768-4.383-3.608-5.884
				c-2.681-2.184-1.943-4.544-0.191-6.521c1.561-1.758,2.988-4.609,6.405-2.124c4.864,3.54,7.83-0.928,10.349-3.625
				c1.877-2.008,3.925-1.592,5.832-2.378c1.13-0.465,1.36,0.385,1.678,1.339c1.543,4.647,4.309,6.532,8.86,5.083
				c3.165-1.007,3.384,0.117,3.699,2.61c0.249,1.986,0.616,4.239,2.384,5.533c3.424,2.504,1.575,4.622-0.8,5.631
				C389.803,81.372,384.603,84.646,378.251,84.06z"/>
		</g>
	</g>
	<g id="fF9y1k_1_" display="inline">
		<g>
			<path fill-rule="evenodd" clip-rule="evenodd" fill="#277B9F" d="M72.053,20.006c4.38,1.385,5.61,4.589,6.046,8.932
				c1.434,14.276-0.807,28.461-0.632,42.695c0.005,0.441-0.11,0.893-0.05,1.322c1.486,10.535-5.562,16.4-16.426,17.204
				c-12.056,0.892-24.032,2.641-36.198,2.404c-4.326-0.084-7.181-2.853-10.671-4.425c-1.137-0.512-1.55-2.44-1.328-3.994
				c0.672-4.694,1.801-9.207,6.723-11.279c1.816-0.765,1.517-2.587,2.508-3.808c9.58-11.799,20.208-22.579,31.029-33.212
				c5.112-5.023,9.736-10.543,14.581-15.838C69.107,20.006,70.581,20.006,72.053,20.006z"/>
			<path fill-rule="evenodd" clip-rule="evenodd" fill="#277B9F" d="M437.891,491c-4.077-3.41-7.145-7.464-8.541-12.715
				c-0.783-2.944-0.014-5.305,2.372-6.93c2.704-1.84,4.606-0.034,6.361,1.907c1.56,1.729,3.134,3.448,4.782,5.092
				c4.936,4.922,5.156,7.026,1.211,12.646C442.015,491,439.952,491,437.891,491z"/>
			<path fill-rule="evenodd" clip-rule="evenodd" fill="#277B9F" d="M265.547,50.209c2.374-2.654,5.434-2.703,8.738-2.758
				c6.136-0.102,12.318,0.447,18.407-0.916c3.219-0.721,4.612,0.925,5.639,3.926c2.059,6.028,1.778,12.163,1.578,18.313
				c-0.14,4.267-3.729,7.117-5.492,11.992c5.47-4.035,10.925-1.312,16.291-2.793c8.197-2.263,13.196,4.41,17.481,10.459
				c5.387,7.604,8.92,16.328,14.58,23.841c2.84,3.771,3.269,8.989,3.89,13.731c0.525,4.023-2.375,6.757-7.289,6.879
				c-3.228,0.081-4.398,1.025-4.129,4.377c0.365,4.535,0.021,9.105,0.569,13.663c0.322,2.687,0.839,4.302,3.987,3.123
				c0.797-0.298,1.756-0.335,2.618-0.256c2.646,0.244,3.774-0.801,3.618-3.524c-0.063-1.117-0.833-2.93,1.206-3.216
				c1.836-0.258,3.341,0.948,3.753,2.489c0.655,2.449,1.544,4.194,4.388,3.687c2.947-0.526,5.55-1.364,5.507-5.295
				c-0.022-1.863-0.14-4.401,3.116-4.196c3.146,0.196,2.639,2.967,2.915,4.644c0.408,2.483,0.265,4.375,3.816,4.287
				c2.958-0.073,4.342-0.84,4.458-3.819c0.045-1.155,0.506-2.289,0.718-3.443c0.176-0.958,0.52-1.634,1.646-1.684
				c1.15-0.051,2.025,0.194,2.299,1.475c0.275,1.287,0.469,2.608,0.909,3.839c0.352,0.981-0.113,2.697,1.635,2.667
				c1.452-0.026,2.25-0.978,2.648-2.474c2.086-7.833,4.108-15.689,6.476-23.438c1.869-6.116,11.091-10.205,18.17-8.354
				c2.257,0.59,4.559,1.161,6.662,2.126c0.859,0.395,1.57,1.635,2.528,0.831c0.939-0.788,1.019-2.457,0.504-3.319
				c-4.552-7.635-1.331-15.729-0.558-23.279c0.575-5.609,2.28-10.688,0.975-16.733c-1.118-5.174,3.361-9.042,8.097-11.338
				c2.209-1.071,2.771-1.515,0.548-3.452c-8.08-7.036-4.215-16.319,1.346-21.918c1.176-1.184,2.683-1.17,4.108-1.272
				c12.353-0.882,24.723-0.427,37.087-0.435c1.576-0.001,2.272,0.716,2.907,2.091c4.135,8.956,0.131,21.179-8.532,25.765
				c-3.511,1.859-3.503,6.491,0.592,10.072c7.141,6.245,8.28,13.696,5.53,22.287c-0.368,1.15-0.871,2.105-1.585,3.071
				c-1.99,2.698-2.168,5.627-2.13,9.062c0.077,7.129,2.482,14.132,1.027,21.31c-1.437,7.082,2.818,13.689,1.794,20.754
				c-0.189,1.304-0.149,2.64-0.266,3.958c-0.117,1.33-1.061,1.606-2.19,1.621c-1.266,0.018-1.879-0.578-1.921-1.851
				c-0.053-1.605-0.163-3.208-0.245-4.754c-1.572-0.616-2.093,0.494-2.399,1.379c-1.417,4.096-4.288,5.535-8.497,6.448
				c-4.521,0.98-9.061,2.185-13.58,3.341c-2.604,0.666-3.987,0.023-3.659-2.941c0.142-1.283-0.226-2.68-1.81-2.295
				c-4.86,1.181-6.11-2.74-8.149-5.525c-0.696-0.952-1.097-2.196-2.626-1.761c-1.483,0.422-1.661,1.761-1.381,2.861
				c0.525,2.074-2.181,6.255,3.284,5.392c0.755-0.119,1.377,0.561,1.469,1.357c0.137,1.171-0.702,1.899-1.492,2.542
				c-3.195,2.596-7.252,1.879-10.882,2.811c-6.324,1.625-12.104-0.06-17.906-2.268c-1.176-0.447-2.601-0.243-4.366-0.372
				c0.965,1.72,2.498,3.338,1.016,4.875c-1.198,1.241-3.14,0.812-4.643,0.467c-2.284-0.525-2.022-2.622-1.9-4.353
				c0.203-2.848-0.064-4.866-3.87-4.447c-2.387,0.264-3.554,0.925-3.241,3.439c0.109,0.869,0.014,1.764,0.007,2.647
				c-0.039,4.083-3.083,6.287-6.977,4.798c-2.007-0.767-0.666-2.143,0.043-3.063c1.603-2.079,0.401-3.969-0.372-5.772
				c-0.749-1.748-2.502-1.105-3.918-1.043c-1.689,0.073-2.621,0.656-2.554,2.698c0.097,2.92-0.243,5.854-0.396,8.782l0.054-0.054
				c-4.686,0.963-6.673-0.833-6.402-5.702c0.195-3.513-1.266-5.29-5.468-4.992c-4.148,0.293-3.781,2.785-3.967,5.392
				c-0.15,2.111,0.491,4.685-3.132,4.44c-3.442-0.231-3.421-2.597-3.285-5.033c0.153-2.711,0.172-4.757-3.717-4.799
				c-3.531-0.038-4.872,0.843-4.25,4.391c0.509,2.909-1.081,6.277,1.946,8.617c0-0.002,0.011-0.021,0.011-0.021
				c-0.402-0.518-1.198-0.865-1.479-0.406c-3.267,5.331-8.884,3.19-13.421,4.071c-6.831,1.326-13.853,2.658-20.741,2.427
				c-6.682-0.224-13.433-0.043-20.104-0.908c-3.378-0.438-3.722-2.88-3.56-5.533c0.071-1.147,0.581-2.261,0.756-3.41
				c0.14-0.917-0.132-1.877-1.104-2.157c-1.021-0.294-1.623,0.424-1.914,1.353c-0.22,0.7-0.256,1.494-0.611,2.108
				c-0.556,0.96-0.842,2.444-2.239,2.4c-1.277-0.041-1.399-1.479-1.597-2.369c-0.669-3.034-2.625-3.42-5.295-3.184
				c-8.054,0.714-6.341-0.283-6.468-7.322c-0.045-2.513,1.997-1.715,3.23-1.658c3.556,0.163,6.641,0.156,5.796-4.935
				c-0.186-1.113,0.277-2.802,2.015-2.808c1.608-0.005,2.997,0.829,2.98,2.6c-0.025,2.591,0.913,4.567,3.562,4.488
				c2.98-0.09,2.865-2.723,3.036-4.957c0.492-6.438,1.062-12.868,1.59-19.303c0.294-3.574-0.659-5.828-4.924-4.751
				c-0.979,0.248-2.057,0.252-3.073,0.178c-1.771-0.13-4.16,1.03-5.021-1.401c-0.878-2.479,0.307-4.978,2.324-6.164
				c2.365-1.391,2.918-3.099,2.606-5.432c-0.412-3.094,1.278-5.342,2.975-7.545c1.701-2.208,2.046-3.966-0.661-5.739
				c-2.118-1.386-3.429-7.044-1.861-7.91c2.473-1.365,5.27-1.287,7.949,0.088c1.648,0.846,3.776,4.208,4.862,2.037
				c1.872-3.743,8.646-5.098,5.871-11.048c-1.037-2.222,0.586-4.256-0.164-7.173c-4.468,4.902-9.843,6.588-15.939,6.285
				c-6.211-0.309-11.421-2.658-15.947-6.942c-2.085-1.972-1.895-4.798-2.176-6.814c-0.82-5.88-1.421-12.2,3.495-17.11
				C265.228,53.941,264.864,51.887,265.547,50.209z M451.22,42.956c-4.729,0.126-8.416-0.277-11.791,1.735
				c-2.242,1.338-3.55,3.345-2.778,5.668c1.479,4.462,7.206,7.495,12.008,6.544c2.595-0.513,4.919-0.582,7.11,1.061
				c1.866,1.398,3.349,1.188,4.857-0.767c1.239-1.604,2.891-2.908,4.446-4.241c1.635-1.4,2.223-3.456,0.424-4.396
				C460.663,46.034,456.969,40.008,451.22,42.956z M442.343,155.391c0.358,1.602-1.305,4.535,2.427,4.104
				c1.284-0.148,4.086,1.763,3.791-1.564c-0.265-2.997,0.48-7.335-4.052-7.596C441.562,150.166,443.081,153.545,442.343,155.391z"/>
			<path fill-rule="evenodd" clip-rule="evenodd" fill="#277B9F" d="M390.242,397.579c-0.216-25.618,4.469-54.364,11.593-82.788
				c0.959-3.827,1.827-7.679,2.67-11.532c1.368-6.258,4.621-11.747,7.949-16.97c3.785-5.942,11.814-5.708,16.48-0.28
				c4.428,5.15,6.745,11.227,7.155,17.916c1.162,18.95,0.153,37.878-0.728,56.813c-0.724,15.527-2.357,30.976-4.706,46.286
				c-2.69,17.535-5.25,35.162-10.459,52.215c-2.517,8.241-7.486,10.84-15.761,8.86c-2.952-0.706-4.291-2.925-5.71-5.025
				c-3.533-5.228-5.134-11.27-5.701-17.402C391.663,430.938,390.083,416.203,390.242,397.579z"/>
			<path fill-rule="evenodd" clip-rule="evenodd" fill="#277B9F" d="M350.275,422.023c-2.976-1.759-11.415-3.022-14.588-2.529
				c-9.213,1.434-18.551,1.623-27.776,3.292c-7.044,1.274-12.77-4.793-13.134-12.54c-0.354-7.505,0.901-14.929,2.021-22.277
				c1.392-9.136,1.766-18.314,2.252-27.483c0.403-7.598,0.403-15.199,1.8-22.724c0.779-4.202,3.353-6.692,7.03-8.324
				c13.685-6.074,27.968-5.516,42.26-3.356c2.391,0.361,3.567,0.161,4.607-1.677c1.103-1.945,2.971-3.747,4.78-2.476
				c1.516,1.067,1.951,3.289,1.145,6.071c-3.086,10.634-6.051,21.284-5.999,32.646c0.059,13.044-0.782,26.085-3.188,39.01
				c-1.035,5.567-0.652,11.399-0.922,17.11C350.485,418.451,350.38,420.134,350.275,422.023z"/>
			<path fill-rule="evenodd" clip-rule="evenodd" fill="#277B9F" d="M106.823,391.166c0.511-22.025,1.01-44.052,1.546-66.076
				c0.089-3.647,2.038-4.842,5.143-2.815c6.344,4.141,13.241,7.209,19.867,10.801c13.299,7.209,26.425,14.729,39.255,22.753
				c4.059,2.538,8.155,5.027,12.11,7.721c2.94,2.003,2.836,7.737-0.121,9.449c-9.153,5.302-17.115,12.306-25.893,18.104
				c-14.534,9.6-28.572,20.027-44.279,27.76c-5.479,2.698-6.959,1.753-7.058-4.347c-0.064-3.971-0.023-7.943-0.165-11.909
				c-0.138-3.814-0.45-7.622-0.686-11.434C106.636,391.17,106.729,391.168,106.823,391.166z"/>
			<path fill-rule="evenodd" clip-rule="evenodd" fill="#2D7EA1" d="M345.973,71.598c0.003-11.169,4.373-15.819,14.956-16.237
				c2.955-0.117,4.37-2.238,6.194-3.756c8.131-6.77,14.579-7.316,23.305-1.746c0.979,0.625,2.065,1.461,3.132,1.506
				c5.323,0.225,8.788,3.359,10.68,7.717c2.399,5.523,6.463,10.389,6.411,16.988c-0.05,6.421-1.943,8.951-8.472,10.417
				c-1.526,0.342-3.204,1.175-4.341,2.777c-2.984,4.201-6.526,7.339-12.38,5.945c-1.231-0.294-2.754,0.757-4.167,1.079
				c-3.512,0.799-7.139,1.28-9.945-1.527c-2.128-2.129-4.424-1.925-6.92-1.513c-6.345,1.049-11.41-2.143-13.069-8.373
				c-0.388-1.458-0.738-2.966-1.911-3.881C346.031,78.329,345.436,74.802,345.973,71.598z M384.834,83.32
				c4.643-1.213,8.903-3.401,12.895-6.03c1.555-1.023,1.642-3.148-0.256-3.941c-2.407-1.007-2.813-2.872-2.934-4.895
				c-0.228-3.849-2.126-5.093-5.676-3.994c-3.576,1.107-5.589-0.978-7.143-3.59c-1.665-2.798-4.688-3.361-7.354-1.067
				c-1.312,1.127-2.681,2.206-3.867,3.457c-2.069,2.185-4.517,2.499-6.695,0.742c-3.649-2.941-5.406,0.371-6.882,2.24
				c-1.569,1.989-3.084,4.794,0.3,7.153c2.104,1.467,3.426,3.58,2.994,6.403c-0.452,2.951,1.303,3.552,3.709,3.307
				c1.271-0.13,2.423-0.423,3.67-1.029c2.707-1.314,5.785-3.369,8.216,0.871c0.577,1.007,2.004,2.062,3.721,0.702
				C380.969,82.511,382.908,82.898,384.834,83.32z"/>
			<path fill-rule="evenodd" clip-rule="evenodd" fill="#2D7EA1" d="M363.91,399.606c1.936-19.682,0.419-39.677,5.132-59.119
				c1.615-6.664,3.449-13.289,5.549-19.814c0.634-1.972,2.519-3.534,3.793-5.311c1.658-2.312,4.107-2.826,6.162-1.395
				c1.918,1.339,2.05,4.003,0.877,6.049c-5.982,10.443-8.178,22.05-10.294,33.63c-2.228,12.188-1.792,24.576-1.932,36.903
				c-0.137,12.037-0.933,24.107,1.095,36.064c0.905,5.34,2.217,10.612,3.361,15.91c0.218,1.005,0.67,1.979,0.752,2.988
				c0.187,2.304,0.835,5.253-1.75,6.253c-2.895,1.12-3.425-2.054-4.351-3.851c-4.318-8.384-6.43-17.364-6.987-26.753
				C364.893,413.982,363.396,406.867,363.91,399.606z"/>
			<path fill-rule="evenodd" clip-rule="evenodd" fill="#277B9F" d="M475.877,276.52c0.061,2.17-0.827,3.568-1.498,5.013
				c-2.918,6.293-6.855,11.885-12.09,16.45c-3.934,3.432-8.162,3.551-10.338,0.465c-1.004-1.425-1.718-3.019-0.948-4.931
				c3.184-7.922,6.686-15.659,13.682-21.057c3.985-3.073,8.88-2.05,10.617,1.993C475.641,275.242,475.77,276.122,475.877,276.52z"/>
			<path fill-rule="evenodd" clip-rule="evenodd" fill="#2D7EA1" d="M463.812,373.505c2.877-0.391,5.513,0.438,8.033,1.663
				c3.167,1.54,5.778,3.874,5.435,7.584c-0.371,4.022-3.634,5.921-7.251,6.529c-3.928,0.661-7.866,0.005-11.5-1.721
				c-3.034-1.44-5.677-3.668-5.332-7.246c0.402-4.192,3.858-5.858,7.555-6.773C461.717,373.302,462.792,373.506,463.812,373.505z"/>
			<path fill-rule="evenodd" clip-rule="evenodd" fill="#2D7EA1" d="M461.488,448.621c-3.078-0.022-4.784-1.336-6.204-2.715
				c-3.576-3.474-6.179-7.622-8.056-12.296c-0.962-2.393-0.056-4.093,1.322-5.553c1.593-1.688,3.795-1.586,5.592-0.292
				c5.157,3.714,9.4,8.253,11.465,14.416C466.703,445.452,464.065,448.715,461.488,448.621z"/>
			<path fill-rule="evenodd" clip-rule="evenodd" fill="#2D7EA1" d="M460.058,351.414c-2.281,0.16-4.29-0.527-5.459-3.082
				c-1.126-2.46-0.113-4.307,1.577-5.785c3.836-3.35,7.802-6.551,11.755-9.764c1.361-1.105,3.289-1.425,4.545-0.573
				c1.656,1.123,2.602,3.1,2.484,5.31C474.605,344.247,467.015,351.447,460.058,351.414z"/>
			<path fill-rule="evenodd" clip-rule="evenodd" fill="#2D7EA1" d="M260.289,96.613c0.249-8.04,0.46-10.146,9.375-10.179
				c1.298-0.004,2.185,0.285,2.674,1.673c1.984,5.637-1.807,15.567-7.188,18.424c-2.271,1.206-4.131,1.665-4.098-2.145
				C261.078,101.486,260.499,98.58,260.289,96.613z"/>
			<path fill-rule="evenodd" clip-rule="evenodd" fill="#2D7EA1" d="M303.561,68.281c0.178-4.307,3.808-6.867,9.425-6.647
				c5.141,0.202,7.289,2.206,7.141,6.659c-0.166,4.981-3.548,7.655-9.298,7.352C305.915,75.387,303.373,72.812,303.561,68.281z"/>
			<path fill-rule="evenodd" clip-rule="evenodd" fill="#2D7EA1" d="M312.014,46.484c2.51-0.186,5.84-0.708,5.721,4.159
				c-0.079,3.216-3.377,6.378-6.87,6.488c-4.187,0.131-7.372-2.571-7.287-6.185C303.657,47.544,305.285,46.615,312.014,46.484z"/>
			<path fill-rule="evenodd" clip-rule="evenodd" fill="#2D7EA1" d="M265.547,50.209c-0.683,1.677-0.319,3.731-1.837,5.109
				c-0.157-1.314,1.469-3.667-1.534-3.388c-2.189,0.204-3.507-0.146-3.551-2.509c-0.023-1.24-0.505-3.291,1.096-3.333
				c1.65-0.044,3.828,0.179,4.835,2.212C264.873,48.944,265.215,49.574,265.547,50.209z"/>
		</g>
	</g>
</g>
<g id="Layer_2">
	<g id="ldsXXl_1_">
		<g>
			<path fill-rule="evenodd" clip-rule="evenodd" fill="#277B9F" d="M80.42,306.562c2.456-6.085,3.096-12.912,8.078-17.971
				c2.309-2.346,4.305-4.834,7.662-5.65c4.111-0.998,7.268-3.859,10.973-5.65c19.827-9.584,40.47-16.804,62.234-20.312
				c8.284-1.337,16.773-1.656,25.184-1.875c6.964-0.183,13.904-0.585,20.851-0.964c2.078-0.112,4.174-0.341,4.65,2.711
				c0.341,2.188,1.966,1.23,3.47,1.093c12.303-1.146,24.396-4.275,36.866-3.884c1.828,0.056,3.859-0.007,5.036,1.24
				c4.209,4.46,9.243,3.91,14.136,2.288c10.834-3.589,21.146-0.6,31.625,1.636c7.3,1.557,14.312,4.308,21.896,4.79
				c2.969,0.188,6.518,1.688,6.603,5.358c0.079,3.521-2.452,5.87-5.871,7.073c-12.693,4.467-25.838,7.17-38.967,9.891
				c-9.343,1.938-18.84,3.261-27.933,6.191c-6.7,2.16-13.148,5.087-19.751,7.563c-6.033,2.264-12.129,4.358-18.182,6.574
				c-2.179,0.798-4.569,1.045-6.424,2.717c-1.229,1.109-2.717,1.394-3.709-0.339c-0.794-1.39-0.162-2.302,1.127-3.29
				c4-3.067,8.738-4.656,13.343-6.105c11.196-3.522,21.646-8.672,32.231-13.566c4.396-2.032,9.044-3.561,12.811-7.182
				c-5.624,1.197-11.396,1.935-16.836,3.697c-9.386,3.042-19.029,5.075-28.477,7.854c-5.979,1.759-11.944,3.659-18.158,4.6
				c-1.329,0.201-3.289,1.253-3.604,2.316c-2.213,7.448-10.134,11.376-11.611,19.224c-0.408,2.164-0.576,3.701,2.321,4.046
				c3.655,0.434,7.261,1.262,10.894,1.892c1.011,0.174,2.278,0.071,2.069,1.613c-0.16,1.193-1.172,1.604-2.257,1.747
				c-7.792,1.024-15.632,2.38-23.453,1.896c-5.324-0.329-9.757,2.475-14.893,2.498c-19.026,0.088-37.613-2.352-55.383-9.371
				c-7.405-2.926-14.62-6.358-21.445-10.545c-0.706-0.431-1.809-2.31-2.8-0.435c-0.886,1.676,0.94,1.662,1.83,2.293
				c8.428,5.976,17.95,10.15,27.511,13.312c11.604,3.84,23.772,6.298,36.213,6.934c8.871,0.455,17.734,1.001,26.602,0.712
				c11.496-0.373,22.993-0.965,34.459-1.847c3.621-0.278,7.16-1.498,10.886-1.721c3.407-0.2,5.854,1.203,8.243,3.19
				c0.34,0.282,0.84,0.433,1.073,0.776c1.045,1.527-0.916,10.251-2.684,11.617c1.354,0.625,2.683,1.141,3.906,1.838
				c1.131,0.646,3.245,0.123,3.045,2.461c-0.159,1.844-1.854,2.548-2.99,2.889c-2.794,0.838-5.501,2.134-8.556,2.094
				c-9.886-0.129-19.772,0.756-29.648-0.847c-11.315-1.835-22.773-0.602-34.163-1.019c-17.027-0.623-33.86-2.785-50.309-7.096
				c-7.573-1.985-15.128-4.379-22.057-8.51c-3.256-1.94-7.426-2.319-10.65-4.783c-2.908-2.222-5.253-4.883-4.072-8.588
				c1.511-4.74-0.459-8.211-2.943-11.739C80.42,310.119,80.42,308.341,80.42,306.562z M144.352,305.834
				c2.267,0.505,4.133,3.136,6.679,1.193c0.886-0.678,0.656-2.22-0.143-2.797C148.284,302.346,146.509,304.85,144.352,305.834z"/>
			<path fill-rule="evenodd" clip-rule="evenodd" fill="#277B9F" d="M153.351,481.773c-5.415-2.496-9.849-5.721-9.496-12.584
				c0.035-0.684,0.09-1.788-0.901-1.67c-1.898,0.23-3.482,0.969-4.709,2.759c-3.261,4.752-14.106,5.519-16.918,0.688
				c-2.644-4.544-3.771-9.646-10.101-10.984c-1.802-0.381-2.319-3.591-2.443-6.157c-1.321-27.269,2.437-54.398,2.092-81.635
				c-0.072-5.66,1.17-11.338-3.115-16.449c-2.135-2.546-1.511-6.368,0.873-8.996c2.329-2.569,4.774-0.399,7.185,0.461
				c12.873,4.594,26.125,7.707,39.713,9.013c10.116,0.973,20.286,1.646,30.481,1.158c1.177-0.056,2.504-0.521,3.199,1.406
				c2.835,7.855,3.424,15.781,2.904,24.16c-1.458,23.477-2.192,46.998-1.468,70.537c0.236,7.697,0.808,12.187-9.713,15.758
				c-0.546,0.185-1.169,0.402-1.542,0.806c-5.664,6.107-12.798,9.594-20.706,11.729
				C156.908,481.773,155.129,481.773,153.351,481.773z M143.959,466.71c2.211-2.724,4.395-5.053,4.922-8.207
				c1.036-6.189,2.245-12.501,2.482-18.641c0.636-16.389,0.348-32.843-0.325-49.239c-0.202-4.896-0.448-9.921-1.209-14.844
				c-0.654-4.229-3.843-3.286-6.505-3.438c-2.769-0.16-4.049,1.302-4.129,3.996c-0.089,2.959-0.037,5.935-0.366,8.868
				c-1.238,11.044-1.066,22.092,0.053,33.109c0.788,7.759,3.437,15.398,1.426,23.305C138.09,450.345,139.215,458.556,143.959,466.71
				z"/>
			<path fill-rule="evenodd" clip-rule="evenodd" fill="#267A9F" d="M380.896,183.488c1.831-5.65,6.149-9.681,9.816-13.95
				c4.867-5.667,9.419-11.534,13.232-17.875c7.129-11.855,14.691-23.426,22.124-35.083c2.266-3.552,4.539-7.132,6.392-10.904
				c2.6-5.292-0.898-10.861-6.778-10.825c-26.221,0.159-52.484-0.8-78.648,1.051c-17.762,1.257-35.519,2.727-53.296,3.77
				c-5.24,0.308-10.558-1.087-15.846-1.144c-17.325-0.186-34.694-0.779-51.945,0.931c-6.084,0.603-12.44-0.079-18.338,2.375
				c-1.295,0.539-2.588-0.042-3.709-0.929c-4.069-3.215-6.957-3.042-10.389,0.854c-8.125,9.225-16.033,18.642-24.292,27.743
				c-5.231,5.766-8.921,12.583-13.642,18.665c-5.347,6.889-10.044,14.293-16.155,20.587c-5.473,5.637-8.51,12.884-12.652,19.397
				c-1.781,2.801-3.122,5.878-7.275,5.152c-3.452-0.604-7.138-4.564-7.626-8.272c-1.126-8.552-0.292-17.102,0.121-25.65
				c0.064-1.326,0.322-2.652,0.288-3.973c-0.477-18.254,2.262-36.316,3.242-54.481c0.159-2.954,0.351-5.911,0.347-8.867
				c-0.002-1.441-0.058-3.146-1.661-3.858c-1.777-0.79-1.684-2.246-1.698-3.72c-0.044-4.654,0.779-9.089,3.549-12.962
				c2.447-3.422,2.65-6.303-1.307-8.917c-3.803-2.513-5.802-6.032-5.038-10.878c0.342-2.169,0.236-4.453,0.03-6.656
				c-0.96-10.29,7.431-17.463,15.65-19.477c10.612-2.599,21.519-2.46,32.447-2.336c7.747,0.088,15.587-1.476,23.031-3.756
				c6.358-1.947,12.031-0.167,18.054,1.025c5.237,1.036,9.03,3.872,8.88,8.768c-0.18,5.895,1.914,10.496,4.526,15.307
				c0.875,1.611,0.984,3.704,1.18,5.604c0.562,5.405,0.82,5.348,6.416,5.209c14.28-0.353,28.261-3.36,42.507-4.32
				c23.911-1.611,47.808-2.844,71.745-2.134c6.576,0.195,13.267,0.214,19.842,1.288c2.869,0.469,6.144,4.304,5.4,7.219
				c-0.562,2.203-0.063,3.748,1.381,5.127c4.704,4.488,4.071,9.962,2.412,15.258c-2.854,9.11-3.053,8.968,6.307,9.04
				c14.212,0.108,28.433-0.467,42.633,0.76c3.517,0.304,7.133,0.177,10.638-0.269c5.502-0.698,10.552,0.789,15.404,2.861
				c4.976,2.125,6.433,7.5,4.009,12.761c-5.475,11.886-13.737,21.959-21.262,32.492c-12.176,17.042-26.101,32.719-38.898,49.278
				C381.659,184.345,381.277,183.916,380.896,183.488z"/>
			<path fill-rule="evenodd" clip-rule="evenodd" fill="#277B9F" d="M249.296,427.168c0,7.691,0.025,15.383-0.015,23.074
				c-0.013,2.557-0.541,4.622-3.875,4.758c-3.379,0.137-4.418,2.938-5.431,5.61c-0.804,2.123-1.334,4.563-3.564,0.605
				c-1.375-2.438-4.558-2.526-6.977-2.107c-7.942,1.378-10.554-0.443-10.168-8.467c0.454-9.442,2.551-18.77,2.403-28.257
				c-0.177-11.395-0.693-22.783-0.889-34.178c-0.051-2.924-1.357-4.718-3.982-4.921c-3.601-0.278-5.343-2.418-7.221-5.076
				c-1.706-2.416-1.987-5.466-4.098-7.693c-0.948-1.001-0.874-2.897,0.108-4.177c1.288-1.674,2.607-0.476,3.89,0.215
				c0.377,0.202,0.857,0.341,1.277,0.314c7.861-0.521,15.504,1.822,23.321,1.767c2.787-0.021,5.477-0.311,8.129-1.66
				c3.673-1.867,5.405-0.776,5.933,3.408c0.52,4.108,1.044,8.251,1.062,12.381C249.262,397.574,250.756,412.348,249.296,427.168z"/>
			<path fill-rule="evenodd" clip-rule="evenodd" fill="#277B9F" d="M279.643,406.153c0.159-8.467-0.495-17.959,0.816-27.389
				c0.445-3.197-0.493-4.906-4.005-4.423c-0.434,0.059-0.888-0.032-1.33-0.032c-2.619,0.011-4.478-1.339-4.516-3.848
				c-0.038-2.378,2.107-3.296,4.253-3.635c4.647-0.731,9.296-1.462,13.958-2.089c2.625-0.354,4.989-0.765,7.313-2.533
				c2.774-2.109,4.384,0.257,4.897,2.831c1.421,7.122,2.181,14.341,1.482,21.597c-1.687,17.532-2.876,35.076-2.451,52.71
				c0.186,7.708-1.784,9.296-9.297,8.199c-0.877-0.129-1.758-0.289-2.639-0.306c-5.53-0.094-7.084-1.726-7.629-7.254
				C279.416,429.053,279.674,418.104,279.643,406.153z"/>
			<path fill-rule="evenodd" clip-rule="evenodd" fill="#277B9F" d="M339.417,323.739c5.104-4.305,11.432-5.685,17.259-8.068
				c8.931-3.651,18.184-6.503,27.161-10.048c5.873-2.317,10.129-0.176,10.329,6.218c0.089,2.838,1.138,5.45,0.394,8.614
				c-1.454,6.175-5.512,8.154-10.843,9.586c-6.336,1.702-12.489,4.08-18.813,5.836c-5.503,1.528-11.077,2.817-16.886,2.81
				c-3.003-0.006-3.468-1.61-2.323-3.571c1.07-1.832,0.993-3.543,0.949-5.428c-0.037-1.543-0.508-3.416,1.938-3.755
				c0.999-0.139,1.774-0.764,1.344-1.791c-0.448-1.07-1.447-0.611-2.279-0.318C344.947,324.773,342.239,324.274,339.417,323.739z"/>
			<path fill-rule="evenodd" clip-rule="evenodd" fill="#277B9F" d="M271.249,334.981c0.257-2.056-1.2-3.293-2.04-4.824
				c3.608-2.005,7.521-1.624,10.999-1.991c9.074-0.954,18.057-2.938,27.235-2.894c1.97,0.011,3.455,0.057,4.433,2.501
				c1.605,4.021,5.529,6.388,8.249,9.66c2.847,3.42,2.593,5.093-1.88,6.893c-6.339,2.551-13.057,3.084-19.748,3.854
				c-5.417,0.619-10.809,1.415-16.283,1.086c-1.339-0.08-2.891-0.018-1.227-1.977c0.909-1.07,0.4-1.458-0.766-1.606
				c-0.854-0.109-1.357-0.673-1.038-1.539c2.312-6.271-1.911-5.721-5.78-5.601c-1.772,0.057-3.551,0.082-5.319-0.006
				c-0.916-0.046-2.29,0.507-2.53-0.986c-0.265-1.639,1.124-1.851,2.277-2.081C268.974,335.244,270.139,335.136,271.249,334.981z"/>
			<path fill-rule="evenodd" clip-rule="evenodd" fill="#277B9F" d="M297.992,215.476c-12.948,1.966-25.208,3.12-37.531,4.007
				c-30.575,2.202-61.228,1.659-91.832,2.897c-18.599,0.753-37.294,0.646-55.936-0.293c-2.271-0.114-4.242-0.928-4.851-3.113
				c-0.538-1.927,0.714-3.335,2.689-3.902c1.726-0.496,0.971-1.88,1.04-2.954c0.084-1.327,0.061-2.662,0.189-3.984
				c0.139-1.421,1.04-2.127,2.434-1.961c1.268,0.151,1.458,0.966,1.437,2.223c-0.042,2.468,0.029,4.915-0.971,7.237
				c-0.446,1.037-0.546,2.074,0.398,2.832c0.943,0.756,1.905,0.574,2.717-0.351c1.065-1.212,2.696-1.249,3.657-0.53
				c4.703,3.517,10.007,1.77,14.918,1.524c4.713-0.235,9.434-0.382,14.154-0.562c15.657-0.596,31.336-0.863,46.966-1.881
				c24.835-1.616,49.698-0.754,74.537-1.476c7.655-0.222,15.371,0.646,22.964-1.085C295.776,213.921,296.676,214.02,297.992,215.476
				z"/>
			<path fill-rule="evenodd" clip-rule="evenodd" fill="#277B9F" d="M341.919,423.828c3.682-17.979,0.473-36.313,2.388-54.433
				c0.359-3.398-2.619-5.017-6.523-3.05c-4.003,2.016-8.059,1.414-12.14,1.452c-2.093,0.02-3.349-0.938-3.934-3.267
				c-1.369-5.46-1.3-5.987,4.207-7.224c6.883-1.544,13.757-3.311,20.904-3.068c3.927,0.135,5.741,2.218,5.515,6.115
				c-1.15,19.802-1.27,39.636-1.695,59.46c-0.076,3.53-0.271,7.085-0.82,10.566c-0.326,2.071-0.737,3.637-4.049,1.756
				C341.941,429.962,341.326,427.525,341.919,423.828z"/>
			<path fill-rule="evenodd" clip-rule="evenodd" fill="#277B9F" d="M265.876,355.669c8.598,0.615,17.126-0.84,25.653-1.359
				c8.426-0.513,16.756-2.819,25.09-4.529c4.768-0.977,9.62-0.816,14.434-1.738c7.923-1.518,16.059-1.94,24.11-2.761
				c0.963-0.099,2.283-0.187,2.491,1.197c0.211,1.411-0.984,1.569-2.03,1.782c-4.608,0.937-9.19,2.013-13.821,2.819
				c-9.631,1.676-19.288,3.195-28.931,4.81c-6.438,1.077-12.96,0.299-19.442,1.167c-9.752,1.306-19.59,1.975-29.4,2.811
				c-3.534,0.301-7.069,0.139-10.526-0.914c-1.037-0.314-2.189-0.549-2.049-1.79c0.139-1.22,1.452-1.438,2.432-1.458
				C257.882,355.621,261.88,355.669,265.876,355.669z"/>
			<path fill-rule="evenodd" clip-rule="evenodd" fill="#277B9F" d="M380.896,183.488c0.382,0.428,0.764,0.857,1.146,1.286
				c-3.877,6.276-8.488,11.984-13.592,17.288c-1.572,1.634-2.622,3.555-3.743,5.454c-2.093,3.539-5.558,4.068-9.172,4.223
				c-0.622,0.027-1.13-0.578-0.786-1.233c1.594-3.034,2.549-6.456,6.836-7.242c6.088-1.117,8.309-6.944,12.047-10.87
				C376.265,189.626,378.488,186.47,380.896,183.488z"/>
			<path fill-rule="evenodd" clip-rule="evenodd" fill="#277B9F" d="M200.354,465.693c0.021,1.311,0.135,2.606-1.606,2.639
				c-1.539,0.025-2.652-0.516-2.269-2.344c0.288-1.37,0.084-3.415,1.905-3.525C200.479,462.337,199.887,464.546,200.354,465.693z"/>
			<path fill-rule="evenodd" clip-rule="evenodd" fill="#277B9F" d="M211.727,468.216c1.342,0.114,2.805-0.091,2.915,1.851
				c0.096,1.684-0.992,2.52-2.368,2.476c-1.578-0.048-2.64-1.237-2.885-2.807C209.056,467.59,211.041,468.839,211.727,468.216z"/>
		</g>
	</g>
	<g id="NLMYqm_1_">
		<g>
			<path fill-rule="evenodd" clip-rule="evenodd" fill="#C19CA7" d="M129.311,185.319c3.07-7.498,8.175-13.59,13.318-19.711
				c9.715-11.562,17.591-24.51,26.993-36.31c3.106-3.899,6.398-7.706,10.001-11.141c5.363-5.113,9.256-11.458,14.511-16.633
				c3.103-3.057,5.898-3.227,9.368-0.471c1.423,1.131,3.08,1.088,4.654,0.776c8.856-1.751,17.852-1.969,26.796-2.812
				c11.401-1.074,22.766-0.481,34.145-0.696c7.531-0.142,14.99,1.275,22.473,1.469c5.097,0.132,10.317-0.214,15.438-0.704
				c8.66-0.829,17.394-0.72,26.003-1.725c25.474-2.973,51.036-2.482,76.589-2.629c3.852-0.022,7.729,0.294,11.549-0.056
				c5.958-0.545,10.351,1.142,12.391,7.153c0,0.593,0,1.186,0,1.779c-5.603,8.9-11.057,17.896-16.841,26.677
				c-8.055,12.232-14.396,25.665-24.165,36.672c-9.384,10.575-16.282,22.99-25.778,33.436c-1.387,1.527-3.47,2.066-4.977,2.366
				c-4.009,0.799-5.857,3.373-6.979,6.646c-0.786,2.297-2.114,3.196-4.325,3.695c-4.199,0.947-8.409,1.645-12.716,1.669
				c-11.855,0.068-23.718,0.388-35.565,0.121c-24.669-0.558-49.333,0-73.997,0.146c-14.326,0.084-28.677,0.579-42.957,1.668
				c-6.798,0.517-13.56,0.578-20.342,0.735c-8.693,0.004-17.399-0.267-26.076,0.116c-5.249,0.231-10.453,1.587-15.679-0.091
				l-0.016-0.013c0.529-1.352-2.487-2.107-0.871-3.302c2.989-2.209,0.149-2.436-0.916-2.7c-1.181-0.293-2.538,0.123-4.145,0.257
				c0.546-5.017-1.49-9.116-4.181-13.081c-1.415-2.084,0.221-5.512,2.146-4.854c2.375,0.812,5.125-0.401,7.175,1.561
				c0.729,0.697,1.928,0.992,2.214,0.008C125.601,191.722,129.618,189.539,129.311,185.319z"/>
			<path fill-rule="evenodd" clip-rule="evenodd" fill="#C09EA8" d="M201.406,18.227c7.625,3.196,10.24,8.312,8.924,17.427
				c-0.102,0.707,0.009,1.736-0.933,1.68c-1.25-0.075-1.741-1.147-1.381-2.25c0.761-2.333,0.692-4.543-0.032-6.903
				c-1.185-3.86-2.632-7.245-7.437-7.417c-1.621-0.058-1.698-1.339-1.81-2.538C199.627,18.227,200.516,18.227,201.406,18.227z"/>
			<path fill-rule="evenodd" clip-rule="evenodd" fill="#C09EA8" d="M143.595,476.268c-0.573-1.137-1.782-0.882-2.711-1.199
				c-3.941-1.343-4.354-2.799-1.68-5.801c0.984-1.106,2.294-1.548,3.521-1.311c1.282,0.248,0.717,1.714,0.88,2.662
				c0.324,1.877,0.59,3.764,0.88,5.648C144.188,476.268,143.892,476.268,143.595,476.268z"/>
			<path fill-rule="evenodd" clip-rule="evenodd" fill="#C09EA8" d="M143.822,328.136c5.495,0.327,10.707,1.698,16.075,1.502
				c4.399-0.162,8.825,0.552,13.245,0.774c7.223,0.366,13.807-3.678,21.22-2.812c6.011,0.702,12.032-0.813,18.033-1.514
				c1.385-0.162,2.847-0.285,3.066-1.935c0.275-2.088-1.515-1.687-2.734-1.949c-3.316-0.712-6.578-1.626-9.997-1.895
				c-2.61-0.207-3.433-1.52-2.415-4.295c1.803-4.914,5.657-8.58,7.913-12.858c3.194-6.058,7.297-8.11,13.329-9.405
				c8.375-1.797,16.577-4.424,24.817-6.819c8.121-2.362,16.697-3.018,24.504-6.58c1.268-0.58,3.253-1.324,3.83,0.326
				c0.537,1.538-1.6,1.725-2.738,2.242c-7.292,3.308-14.516,6.78-21.913,9.834c-8.659,3.573-17.475,6.768-26.21,10.158
				c-0.8,0.311-1.495,0.89-2.256,1.311c-1.948,1.077-4.515,2.082-2.739,4.895c1.726,2.733,3.388,0.156,5.159-0.499
				c10.078-3.739,20.302-7.1,30.294-11.048c7.381-2.917,14.657-6.065,22.502-7.495c16.2-2.953,32.273-6.51,48.215-10.58
				c4.906-1.253,10.604-1.688,13.849-6.721c0.24-0.373,0.754-0.7,0.771-1.065c0.286-6.502,4.092-3.697,7.07-2.616
				c14.578,5.291,29.646,9.359,42.935,17.847c3.532,2.256,5.248,5.233,5.557,9.024c0.333,4.095,0.075,8.239,0.075,13.29
				c-4.134-5.677-8.478-5.38-13.836-3.11c-9.434,3.996-19.243,7.096-28.786,10.846c-4.444,1.748-9.203,2.69-13.344,5.271
				c-0.957,0.595-3.068-0.167-2.526,1.967c0.38,1.491,2.074,1.213,3.039,0.781c3.095-1.379,6.416-0.29,9.897-1.141
				c-5.692,2.635-2.295,8.392-4.707,12.236c-1.229,1.957,1.437,2.248,3.025,2.377c5.845,0.471,11.473-0.959,17.012-2.402
				c7.347-1.911,14.227-5.446,21.828-6.547c1.313-0.19,2.035-1.11,2.909-1.889c1.215-1.08,2.809-2.7,4.132-1.194
				c1.365,1.556-0.73,2.816-1.738,3.976c-3.636,4.179-8.516,6.315-13.605,8.008c-3.918,1.308-7.869,2.574-11.888,3.501
				c-2.693,0.622-3.53,1.915-3.502,4.605c0.099,9.78,0.223,19.571-0.112,29.342c-0.679,19.813-1.586,39.617-2.537,59.419
				c-0.314,6.534-4.213,10.218-10.681,10.721c-0.871,0.068-1.952-0.002-2.564,0.472c-6.766,5.243-14.937,3.737-22.563,4.958
				c-8.002,1.279-15.838,3.783-23.864,4.682c-14.291,1.599-28.196,4.818-42.073,8.345c-1.266,0.323-2.658,0.275-3.983,0.215
				c-4.287-0.194-8.496-0.523-11.589,3.535c-0.924,1.213-2.668,1.803-4.397,1.854c-8.281,0.249-16.542,0.357-24.668-1.734
				c-1.994-0.514-3.916-0.465-5.946,0.622c-3.533,1.891-6.779,0.152-7.548-3.8c-0.295-1.514-0.575-3.429-2.128-3.497
				c-2.042-0.088-2.171,2.14-2.352,3.649c-0.211,1.765-0.239,3.473-2.678,2.814c-1.863-0.499-3.828-1.171-3.576-3.753
				c1.93-19.8,0.083-39.668,1.067-59.478c0.536-10.772,1.046-21.552,1.696-32.312c0.314-5.184-3.466-9.017-3.083-14.035
				c0.115-1.506-1.898-1.512-3.244-1.532c-8.276-0.12-16.536-0.2-24.819-0.706c-9.346-0.571-18.328-2.634-27.453-4.276
				c-12.193-2.193-23.355-7.735-35.431-10.224c-2.821-0.581-5.06-2.32-6.51-5.255c2.283-1.51,4.238-0.455,6.096,0.573
				c5.639,3.115,11.477,5.352,17.828,6.947c7.497,1.883,15.022,3.609,22.545,5.382c5.791,1.365,11.68,1.614,17.523,2.228
				c13.117,1.377,26.385,0.054,39.458,1.188c12.834,1.117,25.622,1.488,38.462,1.624c3.375,0.036,6.393-0.962,9.429-2.113
				c1.312-0.497,2.184-1.373,2.359-2.925c0.208-1.839-1.056-2.124-2.301-2.655c-4.66-1.988-1.794-5.916-1.781-8.754
				c0.026-5.217-2.47-8.212-7.958-8.64c-7.172-0.555-13.883,2.492-20.979,2.288c-1.018-0.028-2.046,0.417-3.065,0.399
				c-12.724-0.229-25.435,1.95-38.12,0.756c-8.333-0.784-16.848,0.063-25.007-2.471
				C145.573,330.061,144.244,330.163,143.822,328.136z M249.413,387.573c0.06-5.915-0.052-11.812-0.857-17.694
				c-0.553-4.024-2.201-5.412-5.842-3.665c-2.961,1.421-5.93,1.694-9.037,1.688c-8.117-0.02-16.15-1.078-24.169-2.157
				c-4.088-0.547-6.134,1.066-4.277,4.415c1.604,2.892,2.085,6.262,4.492,8.896c1.867,2.045,3.338,3.796,6.308,4.074
				c2.624,0.247,4.164,1.883,4.151,4.796c-0.011,2.5,0.372,5.001,0.405,7.505c0.132,9.867,0.782,19.712,0.666,29.597
				c-0.109,9.329-2.461,18.438-2.133,27.773c0.169,4.794,2.895,6.932,7.694,6.707c3.164-0.148,6.875-1.679,9.413,1.889
				c0.61,0.856,0.618,2.624,2.333,2.015c1.181-0.421,1.688-1.586,1.949-2.799c0.597-2.783,1.919-5.263,4.95-5.46
				c3.271-0.21,4.001-1.992,3.978-4.642c-0.087-9.908,0.919-19.775,1.017-29.69C250.564,409.709,249.235,398.669,249.413,387.573z
				 M279.585,408.265c0.507,11.062-0.629,21.883,0.847,32.654c0.611,4.465,2.864,6.907,6.578,6.839
				c1.609-0.032,3.223,0.009,4.831,0.08c7.161,0.325,8.42-0.729,8.271-7.96c-0.353-17.032,0.929-33.963,2.532-50.897
				c0.738-7.812,0.164-15.653-1.051-23.414c-0.419-2.684-1.867-5.757-4.804-3.906c-6.315,3.978-13.449,2.687-20.086,4.285
				c-2.862,0.689-6.622,1.066-6.525,4.655c0.098,3.555,3.779,3.95,6.754,4.339c0.292,0.038,0.595,0.038,0.888,0.006
				c2.322-0.257,2.852,1.015,2.539,2.983C278.748,388.103,280.292,398.342,279.585,408.265z M288.615,349.091
				c3.472,0.649,7.686-0.478,11.897-1.009c6.243-0.79,12.654-1.173,18.466-3.903c4.236-1.989,4.336-3.956,1.367-7.405
				c-2.899-3.37-7.01-5.788-8.511-10.27c-0.609-1.82-1.952-1.478-3.228-1.485c-12.571-0.087-24.873,2.554-37.323,3.717
				c-1.332,0.124-2.912,0.76-1.809,2.579c1.895,3.125,0.383,3.621-2.404,3.741c-1.026,0.044-2.588,0.449-2.374,2.064
				c0.226,1.703,1.763,1.233,2.853,1.262c2.511,0.068,5.037,0.16,7.54-0.002c3.502-0.227,4.787,1.078,4.312,4.682
				c-0.694,5.245,0.147,6.029,5.257,6.029C285.694,349.091,286.729,349.091,288.615,349.091z M341.751,421.701
				c0.372,5.021-0.912,8.623,3.804,10.782c3.241,1.484,4.119,0.682,4.42-2.061c0.464-4.245,0.701-8.523,0.836-12.794
				c0.143-4.59-0.375-9.237,0.15-13.771c1.709-14.743-0.259-29.591,1.546-44.332c0.441-3.612-1.286-6.101-5.7-5.975
				c-8.028,0.232-15.73,2.386-23.582,3.64c-1.633,0.26-3.201,1.786-2.505,3.574c0.87,2.233-0.626,5.967,2.916,6.539
				c4.626,0.743,9.375,1.299,14.006-0.43c4.985-1.862,6.162-1.017,6.063,4.135C343.375,388.447,344.877,405.951,341.751,421.701z
				 M265.215,354.374c0,0.326,0.002,0.655,0.003,0.982c-3.851,0-7.702-0.042-11.553,0.024c-1.269,0.021-2.42,0.605-2.391,2.079
				c0.027,1.357,1.227,1.323,2.26,1.567c5.284,1.247,10.492,0.389,15.801-0.014c16.571-1.258,33.134-2.398,49.651-4.413
				c11.843-1.443,23.525-3.636,35.24-5.708c1.356-0.241,4.324-0.019,3.51-2.783c-0.612-2.081-2.853-1.639-4.632-1.296
				c-5.326,1.021-10.732,1.65-16.086,2.334c-8.169,1.041-16.378,1.833-24.486,3.301c-7.206,1.303-14.451,2.65-21.655,3.653
				C282.473,355.271,273.782,354.374,265.215,354.374z"/>
			<path fill-rule="evenodd" clip-rule="evenodd" fill="#C09EA8" d="M151.604,418.908c0,6.51,0.772,13.141-0.208,19.503
				c-1.067,6.913-1.403,13.94-2.99,20.76c-0.525,2.258-1.7,5.002-4.144,5.171c-2.376,0.164-2.593-2.873-3.3-4.66
				c-1.961-4.954-1.519-10.313-0.691-15.254c1.526-9.103,0.393-17.865-1.185-26.741c-1.769-9.961-0.846-20.03-0.436-30.031
				c0.132-3.21,0.157-6.486,0.566-9.692c0.402-3.147,1.042-5.997,5.54-5.784c4.33,0.204,4.985,2.542,5.142,6.075
				C150.5,391.802,152.187,405.308,151.604,418.908z"/>
			<path fill-rule="evenodd" clip-rule="evenodd" fill="#C09EA8" d="M129.311,185.319c0.307,4.22-3.71,6.403-4.762,10.021
				c-0.286,0.983-1.485,0.688-2.214-0.008c-2.05-1.962-4.799-0.75-7.175-1.561c-1.925-0.658-3.561,2.771-2.146,4.854
				c2.691,3.965,4.727,8.064,4.181,13.081c1.607-0.135,2.964-0.551,4.145-0.257c1.065,0.264,3.905,0.49,0.916,2.7
				c-1.616,1.195,1.4,1.951,0.871,3.302c-1.897-0.366-3.804-1.8-5.628,0.366c-0.567,0.673-1.701,0.515-2.456-0.02
				c-0.955-0.676-0.327-1.527-0.112-2.363c0.435-1.696,0.967-3.409,1.072-5.139c0.278-4.586-0.744-5.217-5.05-3.292
				c-0.625-3.625-1.43-7.202-1.066-10.903c2.023-1.976,2.019-3.962-0.014-6.216c-0.001-0.604-0.001-1.209-0.002-1.814
				c1.249-2.054,1.247-4.108,0.002-6.163c0.059-18.193-0.264-36.376,0.604-54.577c0.683-14.326,0.882-28.769-0.207-43.046
				c-0.537-7.054,0.134-14.016-0.407-21c-0.081-1.052-0.602-2.545,0.982-3.032c1.183-0.364,1.821,0.719,2.562,1.418
				c5.034,4.755,6.109,3.213,1.712,10.704c-2.713,4.623-4.638,10.572-1.963,14.712c2.593,4.011,2.802,7.506,2.528,11.502
				c-1.116,16.325-3.199,32.585-3.396,48.973c-0.107,8.998-1.113,17.966-1.272,26.917c-0.088,4.941-1.02,10.625,2.858,15.218
				c4.778,5.66,9.699,5.271,12.948-1.342C127.427,187.115,128.28,186.167,129.311,185.319z"/>
			<path fill-rule="evenodd" clip-rule="evenodd" fill="#C09EA8" d="M109.368,360.944c2.91,32.397-2.68,64.525-0.035,98.104
				c-2.882-2.882-5.04-4.496-6.47-6.603c-1.824-2.689-2.036-5.616,1.364-7.563c1.336-0.766,2.846-1.359,1.7-3.284
				c-4.303-7.222-1.9-15.006-1.917-22.583c-0.003-1.319,0.722-2.812,0.31-3.934c-2.698-7.345-0.684-14.603,0.186-21.862
				c1.141-9.526,2.458-19.032,3.764-28.538C108.443,363.41,108.992,362.189,109.368,360.944z"/>
			<path fill-rule="evenodd" clip-rule="evenodd" fill="#C09EA8" d="M255.193,49.717c4.15-0.552,8.299-1.555,12.447-1.561
				c9.281-0.015,18.308-2.26,27.53-2.64c10.29-0.424,20.497-1.603,30.898-1.056c5.785,0.304,11.722,0.361,17.591,0.438
				c3.022,0.04,5.875,0.718,8.546,2.045c0.938,0.466,2.776,0.591,2.351,2.095c-0.372,1.312-1.912,1.066-3.105,0.78
				c-5.346-1.279-10.865-0.83-16.257-1.149c-12.238-0.725-24.59-0.84-36.818-0.043c-12.184,0.794-24.439,0.563-36.568,2.293
				C259.681,51.224,257.428,51.501,255.193,49.717z"/>
			<path fill-rule="evenodd" clip-rule="evenodd" fill="#C09EA8" d="M125.44,24.455c-4.771,3.136-10.538,3.961-12.736,9.548
				c-0.322,0.819-1.324,1.23-1.957-0.05c-1.401-2.839,0.664-7.629,3.653-8.422c0.423-0.112,0.877-0.11,1.318-0.152
				C118.764,25.089,121.808,24.8,125.44,24.455z"/>
			<path fill-rule="evenodd" clip-rule="evenodd" fill="#C09EA8" d="M123.142,217.464c5.226,1.679,10.43,0.323,15.679,0.091
				c8.677-0.383,17.383-0.112,26.076-0.116c-0.819,0.266-1.639,0.767-2.457,0.763c-11.789-0.062-23.564,0.282-35.332,0.99
				C125.611,219.281,123.697,219.782,123.142,217.464z"/>
			<path fill-rule="evenodd" clip-rule="evenodd" fill="#C09EA8" d="M358.339,51.637c3.859,2.217,5.012,5.871,5.688,9.773
				c0.119,0.69,0.181,1.537-0.679,1.891c-0.786,0.323-1.461-0.062-1.946-0.654c-0.836-1.02-1.71-2.038-1.678-3.493
				C359.78,56.582,360.013,53.977,358.339,51.637z"/>
			<path fill-rule="evenodd" clip-rule="evenodd" fill="#C09EA8" d="M119.027,468.692c-2.696-0.333-4.125-2.34-5.798-3.932
				c-0.674-0.642-1.896-1.352-1.05-2.528c0.778-1.081,2.186-1.245,3.209-0.609C117.912,463.195,120.265,465.016,119.027,468.692z"/>
			<path fill-rule="evenodd" clip-rule="evenodd" fill="#C09EA8" d="M221.462,54.726c3.588-4.165,7.25-3.796,10.89-3.403
				c0.712,0.078,1.501,0.479,1.598,1.293c0.118,0.998-0.848,0.945-1.478,1.248C229.204,55.436,225.826,54.326,221.462,54.726z"/>
			<path fill-rule="evenodd" clip-rule="evenodd" fill="#C09EA8" d="M365.765,81.771c-0.48,1.512,1.076,3.967-2.087,3.979
				c-1.543,0.006-2.335-0.924-1.842-2.265c0.778-2.114,0.089-5.692,2.647-5.991C366.632,77.243,365.166,80.336,365.765,81.771z"/>
			<path fill-rule="evenodd" clip-rule="evenodd" fill="#C09EA8" d="M103.336,313.626c2.646,1.279,5.304,2.532,7.929,3.854
				c0.644,0.324,1.288,0.874,0.724,1.724c-0.402,0.606-1.087,0.439-1.603,0.181C107.687,318.037,104.911,316.787,103.336,313.626z"
				/>
			<path fill-rule="evenodd" clip-rule="evenodd" fill="#C09EA8" d="M223.278,254.649c0.981,0.87,3.812-0.817,3.495,1.628
				c-0.249,1.921-3.03,0.756-4.561,1.562c-1.015,0.533-1.977-0.396-1.907-1.628C220.412,254.347,221.694,254.287,223.278,254.649z"
				/>
			<path fill-rule="evenodd" clip-rule="evenodd" fill="#C09EA8" d="M133.425,326.224c2.235,0.24,4.47,0.471,6.702,0.728
				c0.763,0.088,1.485,0.409,1.484,1.27c-0.001,1.198-0.989,1.255-1.866,1.276C137.192,329.562,135.462,327.648,133.425,326.224z"/>
			<path fill-rule="evenodd" clip-rule="evenodd" fill="#C09EA8" d="M129.005,325.059c-2.986,1.253-5.565,1.053-7.651-2.234
				C124.466,322.49,126.676,323.991,129.005,325.059z"/>
			<path fill-rule="evenodd" clip-rule="evenodd" fill="#C09EA8" d="M148.987,307.18c-1.079-0.07-2.305-0.357-2.42-1.474
				c-0.16-1.55,1.208-1.789,2.433-1.821c1.14-0.027,2.155,0.409,2.167,1.667C151.179,306.858,150.084,307.121,148.987,307.18z"/>
			<path fill-rule="evenodd" clip-rule="evenodd" fill="#C19CA7" d="M109.87,189.884c2.033,2.254,2.037,4.241,0.014,6.216
				C109.88,194.029,109.875,191.957,109.87,189.884z"/>
			<path fill-rule="evenodd" clip-rule="evenodd" fill="#C19CA7" d="M109.87,181.908c1.245,2.055,1.246,4.109-0.002,6.163
				C109.869,186.016,109.869,183.962,109.87,181.908z"/>
		</g>
	</g>
</g>
</svg>
