<svg version="1.1" viewBox="0.0 0.0 520.2414698162729 661.0551181102362" fill="none" stroke="none" stroke-linecap="square" stroke-miterlimit="10" xmlns:xlink="http://www.w3.org/1999/xlink" xmlns="http://www.w3.org/2000/svg"><clipPath id="p.0"><path d="m0 0l520.24146 0l0 661.0551l-520.24146 0l0 -661.0551z" clip-rule="nonzero"/></clipPath><g clip-path="url(#p.0)"><path fill="#000000" fill-opacity="0.0" d="m0 0l520.24146 0l0 661.0551l-520.24146 0z" fill-rule="evenodd"/><path fill="#cfe2f3" d="m3.223097 3.6299212l513.7953 0l0 568.161l-85.63425 85.63422l-428.16104 0z" fill-rule="evenodd"/><path fill="#a5b4c2" d="m431.38412 657.4252l17.126831 -68.507385l68.507416 -17.126831z" fill-rule="evenodd"/><path fill="#000000" fill-opacity="0.0" d="m431.38412 657.4252l17.126831 -68.507385l68.507416 -17.126831l-85.63425 85.63422l-428.16104 0l0 -653.7952l513.7953 0l0 568.161" fill-rule="evenodd"/><path stroke="#000000" stroke-width="8.0" stroke-linejoin="round" stroke-linecap="butt" d="m431.38412 657.4252l17.126831 -68.507385l68.507416 -17.126831l-85.63425 85.63422l-428.16104 0l0 -653.7952l513.7953 0l0 568.161" fill-rule="evenodd"/><path fill="#000000" d="m171.527 322.37042l0 -68.718735l25.921875 0q6.84375 0 10.453125 0.65625q5.0625 0.84375 8.484375 3.2187347q3.421875 2.359375 5.5 6.625q2.09375 4.265625 2.09375 9.375q0 8.765625 -5.578125 14.84375q-5.578125 6.0625 -20.15625 6.0625l-17.625 0l0 27.9375l-9.09375 0zm9.09375 -36.046875l17.765625 0q8.8125 0 12.515625 -3.28125q3.703125 -3.28125 3.703125 -9.234375q0 -4.3125 -2.1875 -7.375q-2.171875 -3.078125 -5.734375 -4.0625q-2.296875 -0.609375 -8.484375 -0.609375l-17.578125 0l0 24.5625zm54.9375 36.046875l0 -68.718735l23.67186 0q8.015625 0 12.234375 0.984375q5.90625 1.359375 10.078125 4.9218597q5.4375 4.59375 8.125 11.75q2.703125 7.140625 2.703125 16.328125q0 7.828125 -1.828125 13.875q-1.828125 6.046875 -4.6875 10.015625q-2.859375 3.953125 -6.265625 6.234375q-3.390625 2.265625 -8.203125 3.4375q-4.796875 1.171875 -11.03125 1.171875l-24.79686 0zm9.09375 -8.109375l14.67186 0q6.796875 0 10.65625 -1.265625q3.875 -1.265625 6.171875 -3.5625q3.234375 -3.234375 5.03125 -8.6875q1.8125 -5.46875 1.8125 -13.25q0 -10.78125 -3.546875 -16.5625q-3.53125 -5.796875 -8.59375 -7.765625q-3.65625 -1.40625 -11.765625 -1.40625l-14.437485 0l0 52.5zm60.70311 8.109375l0 -68.718735l46.359375 0l0 8.10936l-37.265625 0l0 21.28125l32.25 0l0 8.109375l-32.25 0l0 31.21875l-9.09375 0z" fill-rule="nonzero"/></g></svg>