<?xml version="1.0" encoding="utf-8"?>
<!-- Generator: Adobe Illustrator 16.0.0, SVG Export Plug-In . SVG Version: 6.00 Build 0)  -->
<!DOCTYPE svg PUBLIC "-//W3C//DTD SVG 1.1//EN" "http://www.w3.org/Graphics/SVG/1.1/DTD/svg11.dtd">
<svg version="1.1" id="Layer_1" xmlns="http://www.w3.org/2000/svg" xmlns:xlink="http://www.w3.org/1999/xlink" x="0px" y="0px"
	 width="322px" height="234px" viewBox="0 0 322 234" enable-background="new 0 0 322 234" xml:space="preserve">
<g id="SX2XHw_1_">
	<g>
		<g>
<!-- 			<path fill="#000000" d="M1,234C1,156.334,1,78.667,1,1c107,0,214,0,321,0c0,77.667,0,155.333,0,233C215,234,108,234,1,234z
				 M275.502,96.442c0-1.792,0.059-3.082-0.01-4.364c-0.482-8.958-0.117-18.073-1.707-26.832
				c-2.051-11.306-9.236-19.332-20.652-22.018c-7.551-1.776-15.445-2.478-23.223-2.815c-22.295-0.969-44.613-1.404-66.914-2.26
				c-10.83-0.415-10.824-0.627-14.438-10.861c-0.665-1.885-1.301-3.78-1.955-5.669c-2.283-6.592-6.889-10.757-13.322-13.281
				c-9.596-3.765-19.422-5.753-29.781-5.228C80.207,4.296,56.902,5.262,33.608,6.441C18.285,7.217,6.387,17.501,4.511,31.764
				c-0.867,6.592-1.353,13.278-1.398,19.926c-0.167,24.485,0.666,49-0.286,73.449c-1.026,26.376,2.027,52.188,7.198,77.889
				c0.518,2.576,1.318,5.213,2.57,7.504c6.795,12.436,17.965,18.439,31.514,20.232c6.914,0.916,13.963,1.166,20.948,1.129
				c41.314-0.217,82.629-0.551,123.942-0.961c21.658-0.215,43.32-0.488,64.969-1.137c5.053-0.15,10.578-0.91,14.986-3.156
				c12.191-6.215,23.227-14.48,28.717-27.445c7.127-16.828,13.861-33.913,19.207-51.365c2.756-8.997,2.955-19.036,2.855-28.59
				c-0.143-13.793-9.846-22.723-23.701-23.111c-4.988-0.14-9.99,0.207-14.986,0.31C279.275,96.473,277.504,96.442,275.502,96.442z"
				/> -->
			<path fill-rule="evenodd" fill="#1100CF" clip-rule="evenodd" d="M275.502,96.442c2.002,0,3.773,0.031,5.545-0.006
				c4.996-0.103,9.998-0.449,14.986-0.31c13.855,0.388,23.559,9.318,23.701,23.111c0.1,9.554-0.1,19.593-2.855,28.59
				c-5.346,17.452-12.08,34.537-19.207,51.365c-5.49,12.965-16.525,21.23-28.717,27.445c-4.408,2.246-9.934,3.006-14.986,3.156
				c-21.648,0.648-43.311,0.922-64.969,1.137c-41.313,0.41-82.627,0.744-123.942,0.961c-6.985,0.037-14.034-0.213-20.948-1.129
				c-13.549-1.793-24.719-7.797-31.514-20.232c-1.252-2.291-2.052-4.928-2.57-7.504c-5.171-25.701-8.225-51.513-7.198-77.889
				c0.952-24.449,0.119-48.964,0.286-73.449c0.045-6.647,0.531-13.334,1.398-19.926C6.387,17.501,18.285,7.217,33.608,6.441
				C56.902,5.262,80.207,4.296,103.5,3.114c10.359-0.525,20.186,1.463,29.781,5.228c6.434,2.524,11.039,6.689,13.322,13.281
				c0.654,1.889,1.29,3.784,1.955,5.669c3.614,10.234,3.608,10.446,14.438,10.861c22.301,0.855,44.619,1.291,66.914,2.26
				c7.777,0.338,15.672,1.039,23.223,2.815c11.416,2.686,18.602,10.712,20.652,22.018c1.59,8.759,1.225,17.874,1.707,26.832
				C275.561,93.361,275.502,94.65,275.502,96.442z M37.744,208.689c3.813,1.02,6.281,2.066,8.82,2.283
				c6.633,0.564,13.3,1.098,19.949,1.057c40.142-0.236,80.284-0.594,120.425-1.004c22.154-0.229,44.311-0.553,66.461-1.061
				c3.043-0.07,6.406-0.848,9.018-2.346c8.076-4.633,15.217-10.637,18.646-19.529c6.094-15.801,11.951-31.716,17.135-47.832
				c1.781-5.537,1.549-11.811,1.693-17.762c0.135-5.552-1.174-6.656-6.898-6.542c-11.484,0.228-22.967,1.017-34.445,0.931
				c-33.133-0.248-66.26-1.044-99.392-1.168c-18.638-0.069-37.295,0.407-55.911,1.308c-14.531,0.704-25.575,7.109-31.448,21.386
				c-3.913,9.515-8.885,18.594-13.395,27.862C51.659,180.129,44.908,193.98,37.744,208.689z"/>
<!-- 			<path fill-rule="evenodd" clip-rule="evenodd" fill="#FF0000" d="M37.744,208.689c7.164-14.709,13.916-28.561,20.657-42.416
				c4.51-9.269,9.482-18.348,13.395-27.862c5.873-14.276,16.917-20.682,31.448-21.386c18.616-0.901,37.273-1.377,55.911-1.308
				c33.132,0.124,66.259,0.92,99.392,1.168c11.479,0.086,22.961-0.703,34.445-0.931c5.725-0.114,7.033,0.99,6.898,6.542
				c-0.145,5.951,0.088,12.225-1.693,17.762c-5.184,16.116-11.041,32.031-17.135,47.832c-3.43,8.893-10.57,14.896-18.646,19.529
				c-2.611,1.498-5.975,2.275-9.018,2.346c-22.15,0.508-44.307,0.832-66.461,1.061c-40.141,0.41-80.283,0.768-120.425,1.004
				c-6.649,0.041-13.316-0.492-19.949-1.057C44.025,210.756,41.557,209.709,37.744,208.689z"/> -->
		</g>
	</g>
</g>
</svg>
